<?xml version="1.0" encoding="UTF-8" standalone="no"?>
<!-- Generator: Adobe Illustrator 20.1.0, SVG Export Plug-In . SVG Version: 6.00 Build 0)  -->

<svg
   xmlns:dc="http://purl.org/dc/elements/1.1/"
   xmlns:cc="http://creativecommons.org/ns#"
   xmlns:rdf="http://www.w3.org/1999/02/22-rdf-syntax-ns#"
   xmlns:svg="http://www.w3.org/2000/svg"
   xmlns="http://www.w3.org/2000/svg"
   xmlns:sodipodi="http://sodipodi.sourceforge.net/DTD/sodipodi-0.dtd"
   xmlns:inkscape="http://www.inkscape.org/namespaces/inkscape"
   version="1.1"
   x="0px"
   y="0px"
   viewBox="0 0 110.6 77.1"
   style="enable-background:new 0 0 110.6 77.1;"
   xml:space="preserve"
   id="svg3336"
   inkscape:version="0.91 r13725"
   sodipodi:docname="tinyTILE.svg"><metadata
     id="metadata3788"><rdf:RDF><cc:Work
         rdf:about=""><dc:format>image/svg+xml</dc:format><dc:type
           rdf:resource="http://purl.org/dc/dcmitype/StillImage" /><dc:title /></cc:Work></rdf:RDF></metadata><defs
     id="defs3786" /><sodipodi:namedview
     pagecolor="#ffffff"
     bordercolor="#666666"
     borderopacity="1"
     objecttolerance="10"
     gridtolerance="10"
     guidetolerance="10"
     inkscape:pageopacity="0"
     inkscape:pageshadow="2"
     inkscape:window-width="1502"
     inkscape:window-height="901"
     id="namedview3784"
     showgrid="false"
     inkscape:zoom="7.3670559"
     inkscape:cx="80.926314"
     inkscape:cy="34.002365"
     inkscape:window-x="200"
     inkscape:window-y="24"
     inkscape:window-maximized="0"
     inkscape:current-layer="svg3336" /><style
     type="text/css"
     id="style3338">
	.st0{fill:#666666;}
	.st1{fill:#FDBE10;}
	.st2{fill:#B3B3B3;}
	.st3{fill:#333333;}
	.st4{fill:#E6E6E6;}
	.st5{fill:#633618;}
	.st6{fill:#A57A3C;}
	.st7{fill:#FFFFFF;}
	.st8{font-family:'OCRA';}
	.st9{font-size:2.5886px;}
	.st10{enable-background:new    ;}
	.st11{font-size:3.5px;}
	.st12{fill:none;stroke:#FFFFFF;stroke-width:0.25;stroke-linecap:round;stroke-miterlimit:10;}
	.st13{fill:none;stroke:#FFFFFF;stroke-width:0.25;stroke-linejoin:round;stroke-miterlimit:10;}
	.st14{fill:none;stroke:#FFFFFF;stroke-width:0.25;stroke-linecap:round;stroke-linejoin:round;stroke-miterlimit:10;}
</style><g
     id="BV_tinyTILE"
     inkscape:label="#Layer_3"><path
       class="st0"
       d="M109.2,0H4.3C3.5,0,2.9,0.6,2.9,1.4v74.3c0,0.8,0.6,1.4,1.4,1.4h104.9c0.8,0,1.4-0.6,1.4-1.4V1.4   C110.6,0.6,110,0,109.2,0z M99.9,1.9c0.9,0,1.6,0.7,1.6,1.6c0,0.9-0.7,1.6-1.6,1.6c-0.9,0-1.6-0.7-1.6-1.6   C98.3,2.6,99,1.9,99.9,1.9z M92.1,1.9c0.9,0,1.6,0.7,1.6,1.6C93.7,4.3,93,5,92.1,5s-1.6-0.7-1.6-1.6C90.6,2.6,91.3,1.9,92.1,1.9z    M68.9,1.9c0.9,0,1.6,0.7,1.6,1.6c0,0.9-0.7,1.6-1.6,1.6s-1.6-0.7-1.6-1.6C67.3,2.6,68,1.9,68.9,1.9z M14.7,1.9   c0.9,0,1.6,0.7,1.6,1.6c0,0.9-0.7,1.6-1.6,1.6c-0.9,0-1.6-0.7-1.6-1.6C13.1,2.6,13.8,1.9,14.7,1.9z M6.9,75.2   c-0.9,0-1.6-0.7-1.6-1.6c0-0.9,0.7-1.6,1.6-1.6c0.9,0,1.6,0.7,1.6,1.6C8.5,74.5,7.8,75.2,6.9,75.2z M6.9,5C6.1,5,5.4,4.3,5.4,3.5   c0-0.9,0.7-1.6,1.6-1.6c0.9,0,1.6,0.7,1.6,1.6C8.5,4.3,7.8,5,6.9,5z M14.7,75.2c-0.9,0-1.6-0.7-1.6-1.6c0-0.9,0.7-1.6,1.6-1.6   c0.9,0,1.6,0.7,1.6,1.6C16.3,74.5,15.6,75.2,14.7,75.2z M12.6,67.9c-2.1,0-3.8-1.7-3.8-3.8c0-2.1,1.7-3.8,3.8-3.8s3.8,1.7,3.8,3.8   C16.4,66.2,14.7,67.9,12.6,67.9z M12.6,17.5c-2.1,0-3.8-1.7-3.8-3.8c0-2.1,1.7-3.8,3.8-3.8s3.8,1.7,3.8,3.8   C16.4,15.8,14.7,17.5,12.6,17.5z M22.4,75.2c-0.9,0-1.6-0.7-1.6-1.6c0-0.9,0.7-1.6,1.6-1.6c0.9,0,1.6,0.7,1.6,1.6   C24,74.5,23.3,75.2,22.4,75.2z M22.4,5c-0.9,0-1.6-0.7-1.6-1.6c0-0.9,0.7-1.6,1.6-1.6c0.9,0,1.6,0.7,1.6,1.6C24,4.3,23.3,5,22.4,5z    M30.2,75.2c-0.9,0-1.6-0.7-1.6-1.6c0-0.9,0.7-1.6,1.6-1.6c0.9,0,1.6,0.7,1.6,1.6C31.7,74.5,31,75.2,30.2,75.2z M30.2,5   c-0.9,0-1.6-0.7-1.6-1.6c0-0.9,0.7-1.6,1.6-1.6c0.9,0,1.6,0.7,1.6,1.6C31.7,4.3,31,5,30.2,5z M37.9,75.2c-0.9,0-1.6-0.7-1.6-1.6   c0-0.9,0.7-1.6,1.6-1.6c0.9,0,1.6,0.7,1.6,1.6C39.5,74.5,38.8,75.2,37.9,75.2z M37.9,5c-0.9,0-1.6-0.7-1.6-1.6   c0-0.9,0.7-1.6,1.6-1.6c0.9,0,1.6,0.7,1.6,1.6C39.5,4.3,38.8,5,37.9,5z M45.7,75.2c-0.9,0-1.6-0.7-1.6-1.6c0-0.9,0.7-1.6,1.6-1.6   c0.9,0,1.6,0.7,1.6,1.6C47.2,74.5,46.5,75.2,45.7,75.2z M45.7,5c-0.9,0-1.6-0.7-1.6-1.6c0-0.9,0.7-1.6,1.6-1.6   c0.9,0,1.6,0.7,1.6,1.6C47.2,4.3,46.5,5,45.7,5z M53.4,75.2c-0.9,0-1.6-0.7-1.6-1.6c0-0.9,0.7-1.6,1.6-1.6c0.9,0,1.6,0.7,1.6,1.6   C55,74.5,54.3,75.2,53.4,75.2z M53.4,5c-0.9,0-1.6-0.7-1.6-1.6c0-0.9,0.7-1.6,1.6-1.6c0.9,0,1.6,0.7,1.6,1.6C55,4.3,54.3,5,53.4,5z    M61.2,75.2c-0.9,0-1.6-0.7-1.6-1.6c0-0.9,0.7-1.6,1.6-1.6s1.6,0.7,1.6,1.6C62.7,74.5,62,75.2,61.2,75.2z M61.2,5   c-0.9,0-1.6-0.7-1.6-1.6c0-0.9,0.7-1.6,1.6-1.6s1.6,0.7,1.6,1.6C62.7,4.3,62,5,61.2,5z M68.9,75.2c-0.9,0-1.6-0.7-1.6-1.6   c0-0.9,0.7-1.6,1.6-1.6s1.6,0.7,1.6,1.6C70.5,74.5,69.8,75.2,68.9,75.2z M69.5,65.5c-1.2,0-2.2-1-2.2-2.2c0-1.2,1-2.2,2.2-2.2   s2.2,1,2.2,2.2C71.7,64.6,70.7,65.5,69.5,65.5z M76.7,75.2c-0.9,0-1.6-0.7-1.6-1.6c0-0.9,0.7-1.6,1.6-1.6c0.9,0,1.6,0.7,1.6,1.6   C78.2,74.5,77.5,75.2,76.7,75.2z M76.7,5c-0.9,0-1.6-0.7-1.6-1.6c0-0.9,0.7-1.6,1.6-1.6c0.9,0,1.6,0.7,1.6,1.6   C78.2,4.3,77.5,5,76.7,5z M84.4,75.2c-0.9,0-1.6-0.7-1.6-1.6c0-0.9,0.7-1.6,1.6-1.6s1.6,0.7,1.6,1.6C86,74.5,85.3,75.2,84.4,75.2z    M84.4,5c-0.9,0-1.6-0.7-1.6-1.6c0-0.9,0.7-1.6,1.6-1.6S86,2.6,86,3.5C86,4.3,85.3,5,84.4,5z M92.1,75.2c-0.9,0-1.6-0.7-1.6-1.6   c0-0.9,0.7-1.6,1.6-1.6s1.6,0.7,1.6,1.6C93.7,74.5,93,75.2,92.1,75.2z M92.7,68.5c-1.2,0-2.2-1-2.2-2.2c0-1.2,1-2.2,2.2-2.2   c1.2,0,2.2,1,2.2,2.2C94.9,67.6,93.9,68.5,92.7,68.5z M92.7,62.5c-1.2,0-2.2-1-2.2-2.2c0-1.2,1-2.2,2.2-2.2c1.2,0,2.2,1,2.2,2.2   C94.9,61.6,93.9,62.5,92.7,62.5z M99.9,75.2c-0.9,0-1.6-0.7-1.6-1.6c0-0.9,0.7-1.6,1.6-1.6c0.9,0,1.6,0.7,1.6,1.6   C101.5,74.5,100.8,75.2,99.9,75.2z M101.7,67.9c-2.1,0-3.8-1.7-3.8-3.8c0-2.1,1.7-3.8,3.8-3.8c2.1,0,3.8,1.7,3.8,3.8   C105.5,66.2,103.8,67.9,101.7,67.9z M107.6,75.2c-0.9,0-1.6-0.7-1.6-1.6c0-0.9,0.7-1.6,1.6-1.6s1.6,0.7,1.6,1.6   C109.2,74.5,108.5,75.2,107.6,75.2z M107.6,5c-0.9,0-1.6-0.7-1.6-1.6c0-0.9,0.7-1.6,1.6-1.6s1.6,0.7,1.6,1.6   C109.2,4.3,108.5,5,107.6,5z"
       id="path3341" /></g><g
     id="Layer_1"><g
       id="g3344"><g
         id="g3346"><path
           class="st1"
           d="M19.4,13.7c0-3.8-3-6.8-6.8-6.8s-6.8,3-6.8,6.8s3,6.8,6.8,6.8S19.4,17.5,19.4,13.7z M8.8,13.7     c0-2.1,1.7-3.8,3.8-3.8c2.1,0,3.8,1.7,3.8,3.8s-1.7,3.8-3.8,3.8C10.5,17.5,8.8,15.8,8.8,13.7z"
           id="path3348" /><path
           class="st1"
           d="M19.4,64.1c0-3.8-3-6.8-6.8-6.8s-6.8,3-6.8,6.8s3,6.8,6.8,6.8S19.4,67.9,19.4,64.1z M8.8,64.1     c0-2.1,1.7-3.8,3.8-3.8c2.1,0,3.8,1.7,3.8,3.8c0,2.1-1.7,3.8-3.8,3.8C10.5,67.9,8.8,66.2,8.8,64.1z"
           id="path3350" /><path
           class="st1"
           d="M108.5,64.1c0-3.8-3-6.8-6.8-6.8c-3.8,0-6.8,3-6.8,6.8s3,6.8,6.8,6.8C105.5,71,108.5,67.9,108.5,64.1z      M97.9,64.1c0-2.1,1.7-3.8,3.8-3.8c2.1,0,3.8,1.7,3.8,3.8c0,2.1-1.7,3.8-3.8,3.8C99.6,67.9,97.9,66.2,97.9,64.1z"
           id="path3352" /><g
           id="BV_J5"
           class="component"><path
             class="st1 pin"
             d="m 9.4,73.7 c 0,-1.4 -1.1,-2.5 -2.5,-2.5 -1.4,0 -2.5,1.1 -2.5,2.5 0,1.4 1.1,2.5 2.5,2.5 1.4,0 2.5,-1.2 2.5,-2.5 z m -4,0 c 0,-0.9 0.7,-1.6 1.6,-1.6 0.9,0 1.6,0.7 1.6,1.6 0,0.9 -0.7,1.6 -1.6,1.6 C 6.1,75.2 5.4,74.5 5.4,73.7 Z"
             id="BV_J5Pin1"
             inkscape:connector-curvature="0"
             style="fill:#fdbe10" /><path
             class="st1 pin"
             d="m 17.2,73.7 c 0,-1.4 -1.1,-2.5 -2.5,-2.5 -1.4,0 -2.5,1.1 -2.5,2.5 0,1.4 1.1,2.5 2.5,2.5 1.4,0 2.5,-1.2 2.5,-2.5 z m -4.1,0 c 0,-0.9 0.7,-1.6 1.6,-1.6 0.9,0 1.6,0.7 1.6,1.6 0,0.9 -0.7,1.6 -1.6,1.6 -0.9,-0.1 -1.6,-0.8 -1.6,-1.6 z"
             id="BV_J5Pin2"
             inkscape:connector-curvature="0"
             style="fill:#fdbe10" /><path
             class="st1 pin"
             d="m 24.9,73.7 c 0,-1.4 -1.1,-2.5 -2.5,-2.5 -1.4,0 -2.4,1.1 -2.4,2.5 0,1.4 1.1,2.5 2.5,2.5 1.4,0 2.4,-1.2 2.4,-2.5 z m -4,0 c 0,-0.9 0.7,-1.6 1.6,-1.6 0.9,0 1.6,0.7 1.6,1.6 0,0.9 -0.7,1.6 -1.6,1.6 -0.9,-0.1 -1.6,-0.8 -1.6,-1.6 z"
             id="BV_J5Pin3"
             inkscape:connector-curvature="0"
             style="fill:#fdbe10" /><path
             class="st1 pin"
             d="m 32.6,73.7 c 0,-1.4 -1.1,-2.5 -2.5,-2.5 -1.4,0 -2.5,1.1 -2.5,2.5 0,1.4 1.1,2.5 2.5,2.5 1.4,0 2.5,-1.2 2.5,-2.5 z m -4,0 c 0,-0.9 0.7,-1.6 1.6,-1.6 0.9,0 1.6,0.7 1.6,1.6 0,0.9 -0.7,1.6 -1.6,1.6 -0.9,-0.1 -1.6,-0.8 -1.6,-1.6 z"
             id="BV_J5Pin4"
             inkscape:connector-curvature="0"
             style="fill:#fdbe10" /><path
             class="st1 pin"
             d="m 40.4,73.7 c 0,-1.4 -1.1,-2.5 -2.5,-2.5 -1.4,0 -2.5,1.1 -2.5,2.5 0,1.4 1.1,2.5 2.5,2.5 1.4,0 2.5,-1.2 2.5,-2.5 z m -4,0 c 0,-0.9 0.7,-1.6 1.6,-1.6 0.9,0 1.6,0.7 1.6,1.6 0,0.9 -0.7,1.6 -1.6,1.6 -0.9,-0.1 -1.6,-0.8 -1.6,-1.6 z"
             id="BV_J5Pin5"
             inkscape:connector-curvature="0"
             style="fill:#fdbe10" /><path
             class="st1 pin"
             d="m 48.1,73.7 c 0,-1.4 -1.1,-2.5 -2.5,-2.5 -1.4,0 -2.5,1.1 -2.5,2.5 0,1.4 1.1,2.5 2.5,2.5 1.4,0 2.5,-1.2 2.5,-2.5 z m -4,0 c 0,-0.9 0.7,-1.6 1.6,-1.6 0.9,0 1.6,0.7 1.6,1.6 0,0.9 -0.7,1.6 -1.6,1.6 -0.9,-0.1 -1.6,-0.8 -1.6,-1.6 z"
             id="BV_J5Pin6"
             inkscape:connector-curvature="0"
             style="fill:#fdbe10" /><path
             class="st1 pin"
             d="m 55.9,73.7 c 0,-1.4 -1.1,-2.5 -2.5,-2.5 -1.4,0 -2.5,1.1 -2.5,2.5 0,1.4 1.1,2.5 2.5,2.5 1.4,-0.1 2.5,-1.2 2.5,-2.5 z m -4,0 c 0,-0.9 0.7,-1.6 1.6,-1.6 0.9,0 1.6,0.7 1.6,1.6 0,0.9 -0.7,1.6 -1.6,1.6 -0.9,-0.1 -1.6,-0.8 -1.6,-1.6 z"
             id="BV_J5Pin7"
             inkscape:connector-curvature="0"
             style="fill:#fdbe10" /><path
             class="st1 pin"
             d="m 63.6,73.7 c 0,-1.4 -1.1,-2.5 -2.5,-2.5 -1.4,0 -2.5,1.1 -2.5,2.5 0,1.4 1.1,2.5 2.5,2.5 1.4,0 2.5,-1.2 2.5,-2.5 z m -4,0 c 0,-0.9 0.7,-1.6 1.6,-1.6 0.9,0 1.6,0.7 1.6,1.6 0,0.9 -0.7,1.6 -1.6,1.6 -0.9,-0.1 -1.6,-0.8 -1.6,-1.6 z"
             id="BV_J5Pin8"
             inkscape:connector-curvature="0"
             style="fill:#fdbe10" /><path
             class="st1 pin"
             d="m 71.4,73.7 c 0,-1.4 -1.1,-2.5 -2.5,-2.5 -1.4,0 -2.5,1.1 -2.5,2.5 0,1.4 1.1,2.5 2.5,2.5 1.4,-0.1 2.5,-1.2 2.5,-2.5 z m -4.1,0 c 0,-0.9 0.7,-1.6 1.6,-1.6 0.9,0 1.6,0.7 1.6,1.6 0,0.9 -0.7,1.6 -1.6,1.6 -0.9,-0.1 -1.6,-0.8 -1.6,-1.6 z"
             id="BV_J5Pin9"
             inkscape:connector-curvature="0"
             style="fill:#fdbe10" /><path
             class="st1 pin"
             d="m 79.1,73.7 c 0,-1.4 -1.1,-2.5 -2.5,-2.5 -1.4,0 -2.5,1.1 -2.5,2.5 0,1.4 1.1,2.5 2.5,2.5 1.4,-0.1 2.5,-1.2 2.5,-2.5 z m -4,0 c 0,-0.9 0.7,-1.6 1.6,-1.6 0.9,0 1.6,0.7 1.6,1.6 0,0.9 -0.7,1.6 -1.6,1.6 -0.9,-0.1 -1.6,-0.8 -1.6,-1.6 z"
             id="BV_J5Pin10"
             inkscape:connector-curvature="0"
             style="fill:#fdbe10" /><path
             class="st1 pin"
             d="m 86.9,73.7 c 0,-1.4 -1.1,-2.5 -2.5,-2.5 -1.4,0 -2.5,1.1 -2.5,2.5 0,1.4 1.1,2.5 2.5,2.5 1.4,-0.1 2.5,-1.2 2.5,-2.5 z m -4.1,0 c 0,-0.9 0.7,-1.6 1.6,-1.6 0.9,0 1.6,0.7 1.6,1.6 0,0.9 -0.7,1.6 -1.6,1.6 -0.9,-0.1 -1.6,-0.8 -1.6,-1.6 z"
             id="BV_J5Pin11"
             inkscape:connector-curvature="0"
             style="fill:#fdbe10" /><path
             class="st1 pin"
             d="m 94.6,73.7 c 0,-1.4 -1.1,-2.5 -2.5,-2.5 -1.4,0 -2.5,1.1 -2.5,2.5 0,1.4 1.1,2.5 2.5,2.5 1.4,-0.1 2.5,-1.2 2.5,-2.5 z m -4,0 c 0,-0.9 0.7,-1.6 1.6,-1.6 0.9,0 1.6,0.7 1.6,1.6 0,0.9 -0.7,1.6 -1.6,1.6 -0.9,-0.1 -1.6,-0.8 -1.6,-1.6 z"
             id="BV_J5Pin12"
             inkscape:connector-curvature="0"
             style="fill:#fdbe10" /><path
             class="st1 pin"
             d="m 102.3,73.7 c 0,-1.4 -1.1,-2.5 -2.5,-2.5 -1.4,0 -2.5,1.1 -2.5,2.5 0,1.4 1.1,2.5 2.5,2.5 1.4,-0.1 2.5,-1.2 2.5,-2.5 z m -4,0 c 0,-0.9 0.7,-1.6 1.6,-1.6 0.9,0 1.6,0.7 1.6,1.6 0,0.9 -0.7,1.6 -1.6,1.6 -0.9,-0.1 -1.6,-0.8 -1.6,-1.6 z"
             id="BV_J5Pin13"
             inkscape:connector-curvature="0"
             style="fill:#fdbe10" /><path
             class="st1 pin"
             d="m 110.1,73.7 c 0,-1.4 -1.1,-2.5 -2.5,-2.5 -1.4,0 -2.5,1.1 -2.5,2.5 0,1.4 1.1,2.5 2.5,2.5 1.4,-0.1 2.5,-1.2 2.5,-2.5 z m -4,0 c 0,-0.9 0.7,-1.6 1.6,-1.6 0.9,0 1.6,0.7 1.6,1.6 0,0.9 -0.7,1.6 -1.6,1.6 -0.9,-0.1 -1.6,-0.8 -1.6,-1.6 z"
             id="BV_J5Pin14"
             inkscape:connector-curvature="0"
             style="fill:#fdbe10" /></g><g
           id="BV_J1"
           class="component"><path
             class="st1 pin"
             d="M 9.4,3.5 C 9.4,2.1 8.3,1 6.9,1 5.5,1 4.5,2.1 4.5,3.5 4.5,4.9 5.6,6 7,6 8.4,6 9.4,4.8 9.4,3.5 Z m -4,0 C 5.4,2.6 6.1,1.9 7,1.9 7.9,1.9 8.6,2.6 8.6,3.5 8.6,4.4 7.8,5 6.9,5 6.1,5 5.4,4.3 5.4,3.5 Z"
             id="BV_J1Pin1"
             inkscape:connector-curvature="0"
             style="fill:#fdbe10" /><path
             class="st1 pin"
             d="M 17.2,3.5 C 17.2,2.1 16,1 14.7,1 c -1.3,0 -2.5,1.1 -2.5,2.5 0,1.4 1.1,2.5 2.5,2.5 1.4,0 2.5,-1.2 2.5,-2.5 z m -4.1,0 c 0,-0.9 0.7,-1.6 1.6,-1.6 0.9,0 1.6,0.7 1.6,1.6 C 16.3,4.4 15.6,5 14.7,5 13.8,5 13.1,4.3 13.1,3.5 Z"
             id="BV_J1Pin2"
             inkscape:connector-curvature="0"
             style="fill:#fdbe10" /><path
             class="st1 pin"
             d="M 24.9,3.5 C 24.9,2.1 23.8,1 22.4,1 21,1 20,2.1 20,3.5 20,4.9 21.1,6 22.5,6 23.9,6 24.9,4.8 24.9,3.5 Z m -4,0 c 0,-0.9 0.7,-1.6 1.6,-1.6 0.9,0 1.6,0.7 1.6,1.6 C 24.1,4.4 23.3,5 22.4,5 21.6,5 20.9,4.3 20.9,3.5 Z"
             id="BV_J1Pin3"
             inkscape:connector-curvature="0"
             style="fill:#fdbe10" /><path
             class="st1 pin"
             d="M 32.6,3.5 C 32.6,2.1 31.5,1 30.1,1 c -1.4,0 -2.5,1.1 -2.5,2.5 0,1.4 1.1,2.5 2.5,2.5 1.4,0 2.5,-1.2 2.5,-2.5 z m -4,0 c 0,-0.9 0.7,-1.6 1.6,-1.6 0.9,0 1.6,0.7 1.6,1.6 C 31.8,4.4 31,5 30.2,5 29.3,5 28.6,4.3 28.6,3.5 Z"
             id="BV_J1Pin4"
             inkscape:connector-curvature="0"
             style="fill:#fdbe10" /><path
             class="st1 pin"
             d="M 40.4,3.5 C 40.4,2.1 39.3,1 37.9,1 c -1.4,0 -2.5,1.1 -2.5,2.5 0,1.4 1.1,2.5 2.5,2.5 1.4,0 2.5,-1.2 2.5,-2.5 z m -4,0 c 0,-0.9 0.7,-1.6 1.6,-1.6 0.9,0 1.6,0.7 1.6,1.6 C 39.6,4.4 38.8,5 37.9,5 37.1,5 36.4,4.3 36.4,3.5 Z"
             id="BV_J1Pin5"
             inkscape:connector-curvature="0"
             style="fill:#fdbe10" /><path
             class="st1 pin"
             d="M 48.1,3.5 C 48.1,2.1 47,1 45.7,1 c -1.3,0 -2.5,1.1 -2.5,2.5 0,1.4 1.1,2.5 2.5,2.5 1.4,0 2.4,-1.2 2.4,-2.5 z m -4,0 c 0,-0.9 0.7,-1.6 1.6,-1.6 0.9,0 1.6,0.7 1.6,1.6 C 47.3,4.4 46.5,5 45.7,5 44.8,5 44.1,4.3 44.1,3.5 Z"
             id="BV_J1Pin6"
             inkscape:connector-curvature="0"
             style="fill:#fdbe10" /><path
             class="st1 pin"
             d="M 55.9,3.5 C 55.9,2.1 54.8,1 53.4,1 52.1,1 51,2.1 51,3.5 51,4.9 52.1,6 53.5,6 54.8,5.9 55.9,4.8 55.9,3.5 Z m -4,0 c 0,-0.9 0.7,-1.6 1.6,-1.6 0.9,0 1.6,0.7 1.6,1.6 C 55.1,4.4 54.3,5 53.4,5 52.6,5 51.9,4.3 51.9,3.5 Z"
             id="BV_J1Pin7"
             inkscape:connector-curvature="0"
             style="fill:#fdbe10" /><path
             class="st1 pin"
             d="M 63.6,3.5 C 63.6,2.1 62.5,1 61.1,1 c -1.4,0 -2.5,1.1 -2.5,2.5 0,1.4 1.1,2.5 2.5,2.5 1.4,0 2.5,-1.2 2.5,-2.5 z m -4,0 c 0,-0.9 0.7,-1.6 1.6,-1.6 0.9,0 1.6,0.7 1.6,1.6 C 62.8,4.4 62,5 61.2,5 60.3,5 59.6,4.3 59.6,3.5 Z"
             id="BV_J1Pin8"
             inkscape:connector-curvature="0"
             style="fill:#fdbe10" /><path
             class="st1 pin"
             d="M 71.4,3.5 C 71.4,2.1 70.3,1 68.9,1 67.5,1 66.4,2.1 66.4,3.5 66.4,4.9 67.5,6 68.9,6 70.3,5.9 71.4,4.8 71.4,3.5 Z m -4.1,0 c 0,-0.9 0.7,-1.6 1.6,-1.6 0.9,0 1.6,0.7 1.6,1.6 C 70.5,4.4 69.8,5 68.9,5 68,5 67.3,4.3 67.3,3.5 Z"
             id="BV_J1Pin9"
             inkscape:connector-curvature="0"
             style="fill:#fdbe10" /><path
             class="st1 pin"
             d="M 79.1,3.5 C 79.1,2.1 78,1 76.7,1 75.3,1 74.2,2.1 74.2,3.5 74.2,4.9 75.3,6 76.7,6 78,5.9 79.1,4.8 79.1,3.5 Z m -4,0 c 0,-0.9 0.7,-1.6 1.6,-1.6 0.9,0 1.6,0.7 1.6,1.6 C 78.3,4.4 77.5,5 76.7,5 75.8,5 75.1,4.3 75.1,3.5 Z"
             id="BV_J1Pin10"
             inkscape:connector-curvature="0"
             style="fill:#fdbe10" /><path
             class="st1 pin"
             d="M 86.9,3.5 C 86.9,2.1 85.8,1 84.4,1 83,1 81.9,2.1 81.9,3.5 81.9,4.9 83,6 84.4,6 85.8,5.9 86.9,4.8 86.9,3.5 Z m -4.1,0 c 0,-0.9 0.7,-1.6 1.6,-1.6 0.9,0 1.6,0.7 1.6,1.6 C 86,4.4 85.3,5 84.4,5 83.5,5 82.8,4.3 82.8,3.5 Z"
             id="BV_J1Pin11"
             inkscape:connector-curvature="0"
             style="fill:#fdbe10" /><path
             class="st1 pin"
             d="M 94.6,3.5 C 94.6,2.1 93.5,1 92.1,1 90.7,1 89.6,2.1 89.6,3.5 89.6,4.9 90.7,6 92.1,6 93.5,5.9 94.6,4.8 94.6,3.5 Z m -4,0 c 0,-0.9 0.7,-1.6 1.6,-1.6 0.9,0 1.6,0.7 1.6,1.6 C 93.8,4.4 93,5 92.1,5 91.3,5 90.6,4.3 90.6,3.5 Z"
             id="BV_J1Pin12"
             inkscape:connector-curvature="0"
             style="fill:#fdbe10" /><path
             class="st1 pin"
             d="m 102.3,3.5 c 0,-1.4 -1.1,-2.5 -2.5,-2.5 -1.4,0 -2.5,1.1 -2.5,2.5 0,1.4 1.1,2.5 2.5,2.5 1.4,-0.1 2.5,-1.2 2.5,-2.5 z m -4,0 c 0,-0.9 0.7,-1.6 1.6,-1.6 0.9,0 1.6,0.7 1.6,1.6 0,0.9 -0.7,1.5 -1.6,1.5 C 99,5 98.3,4.3 98.3,3.5 Z"
             id="BV_J1Pin13"
             inkscape:connector-curvature="0"
             style="fill:#fdbe10" /><path
             class="st1 pin"
             d="M 110.1,3.5 C 110.1,2.1 109,1 107.6,1 c -1.4,0 -2.5,1.1 -2.5,2.5 0,1.4 1.1,2.5 2.5,2.5 1.4,-0.1 2.5,-1.2 2.5,-2.5 z m -4,0 c 0,-0.9 0.7,-1.6 1.6,-1.6 0.9,0 1.6,0.7 1.6,1.6 0,0.9 -0.8,1.5 -1.7,1.5 -0.8,0 -1.5,-0.7 -1.5,-1.5 z"
             id="BV_J1Pin14"
             inkscape:connector-curvature="0"
             style="fill:#fdbe10" /></g><g
           id="g3414"><circle
             class="st1"
             cx="73.3"
             cy="61.4"
             r="1.4"
             id="circle3416" /><circle
             class="st1"
             cx="73.3"
             cy="65.4"
             r="1.4"
             id="circle3418" /><circle
             class="st1"
             cx="77.2"
             cy="61.4"
             r="1.4"
             id="circle3420" /><circle
             class="st1"
             cx="77.2"
             cy="65.4"
             r="1.4"
             id="circle3422" /><circle
             class="st1"
             cx="81"
             cy="61.4"
             r="1.4"
             id="circle3424" /><circle
             class="st1"
             cx="81"
             cy="65.4"
             r="1.4"
             id="circle3426" /><circle
             class="st1"
             cx="84.9"
             cy="61.4"
             r="1.4"
             id="circle3428" /><circle
             class="st1"
             cx="84.9"
             cy="65.4"
             r="1.4"
             id="circle3430" /><circle
             class="st1"
             cx="88.8"
             cy="61.4"
             r="1.4"
             id="circle3432" /><circle
             class="st1"
             cx="88.8"
             cy="65.4"
             r="1.4"
             id="circle3434" /></g></g></g><g
       id="BV_J3"
       class="component"><g
         id="g3438"><path
           class="st2"
           d="m 5.6,20.8 2.8,0 c 0.6,0 1.1,0.5 1.1,1.1 l 0,28.7 c 0,0.6 -0.5,1.1 -1.1,1.1 l -2.8,0 C 5,51.7 4.5,51.2 4.5,50.6 l 0,-28.7 c 0,-0.6 0.5,-1.1 1.1,-1.1 z"
           id="path3440"
           inkscape:connector-curvature="0"
           style="fill:#b3b3b3" /><path
           class="st2"
           d="m 11.6,20.8 2.8,0 c 0.6,0 1.1,0.5 1.1,1.1 l 0,28.7 c 0,0.6 -0.5,1.1 -1.1,1.1 l -2.8,0 c -0.6,0 -1.1,-0.5 -1.1,-1.1 l 0,-28.7 c 0,-0.6 0.5,-1.1 1.1,-1.1 z"
           id="path3442"
           inkscape:connector-curvature="0"
           style="fill:#b3b3b3" /><g
           id="g3444"><rect
             x="11.2"
             y="31.799999"
             class="st2"
             width="5.6999998"
             height="0.80000001"
             id="rect3446"
             style="fill:#b3b3b3" /><rect
             x="11.2"
             y="39.799999"
             class="st2"
             width="5.6999998"
             height="0.80000001"
             id="rect3448"
             style="fill:#b3b3b3" /><rect
             x="11.2"
             y="37.799999"
             class="st2"
             width="5.6999998"
             height="0.80000001"
             id="rect3450"
             style="fill:#b3b3b3" /><rect
             x="11.2"
             y="35.799999"
             class="st2"
             width="5.6999998"
             height="0.80000001"
             id="rect3452"
             style="fill:#b3b3b3" /><rect
             x="11.2"
             y="33.799999"
             class="st2"
             width="5.6999998"
             height="0.80000001"
             id="rect3454"
             style="fill:#b3b3b3" /></g></g><rect
         y="23.6"
         class="st3"
         width="15.5"
         height="25.299999"
         id="rect3456"
         x="0"
         style="fill:#333333" /><path
         d="m 15.5,28.3 c -1,0 -1.8,0.8 -1.8,1.8 l 0,12.4 c 0,1 0.8,1.8 1.8,1.8 l 0,-16 z"
         id="path3458"
         inkscape:connector-curvature="0" /><circle
         cx="5"
         cy="41.200001"
         r="0.80000001"
         id="circle3460" /><circle
         cx="5"
         cy="31.200001"
         r="0.80000001"
         id="circle3462" /></g><rect
       x="51.900002"
       y="22.6"
       class="st3 component"
       width="33.099998"
       height="25.1"
       id="BV_CPU"
       style="fill:#333333" /><g
       id="g3466"><g
         id="g3468"><rect
           x="27"
           y="21"
           class="st2"
           width="12"
           height="0.8"
           id="rect3470" /><rect
           x="27"
           y="18.5"
           class="st2"
           width="12"
           height="0.8"
           id="rect3472" /><rect
           x="27"
           y="16.1"
           class="st2"
           width="12"
           height="0.8"
           id="rect3474" /><rect
           x="27"
           y="13.7"
           class="st2"
           width="12"
           height="0.8"
           id="rect3476" /></g><rect
         x="28.1"
         y="11.1"
         class="st3"
         width="9.9"
         height="13.2"
         id="rect3478" /></g><g
       id="g3480"><g
         id="g3482"><path
           class="st2"
           d="M108.5,10.3v1.1c0,0.3-0.3,0.6-0.6,0.6H95.5c-0.3,0-0.6-0.3-0.6-0.6v-1.1c0-0.3,0.3-0.6,0.6-0.6h12.4     C108.3,9.7,108.5,10,108.5,10.3z"
           id="path3484" /><path
           class="st2"
           d="M108.5,13.3v1.1c0,0.3-0.3,0.6-0.6,0.6H95.5c-0.3,0-0.6-0.3-0.6-0.6v-1.1c0-0.3,0.3-0.6,0.6-0.6h12.4     C108.3,12.7,108.5,13,108.5,13.3z"
           id="path3486" /></g><path
         class="st4"
         d="M106.9,15.1c0,0.6-0.5,1.1-1.1,1.1l-4.1,1l-4.2-1c-0.6,0-1.1-0.5-1.1-1.1V9.8c0-0.6,0.5-1.1,1.1-1.1l4.1-1    l4.1,1c0.6,0,1.1,0.5,1.1,1.1V15.1z"
         id="path3488" /><g
         id="g3490"><path
           class="st3"
           d="M104.1,14.9h-4.8c-0.8,0-1.4-0.6-1.4-1.4v-2.2c0-0.8,0.6-1.4,1.4-1.4h4.8c0.8,0,1.4,0.6,1.4,1.4v2.2     C105.5,14.3,104.9,14.9,104.1,14.9z"
           id="path3492" /><path
           class="st3"
           d="M101.7,15.7L101.7,15.7c-0.8,0-1.4-0.6-1.4-1.4v-3.9c0-0.8,0.6-1.4,1.4-1.4l0,0c0.8,0,1.4,0.6,1.4,1.4v3.9     C103.1,15.1,102.5,15.7,101.7,15.7z"
           id="path3494" /></g></g><g
       id="g3496"><path
         class="st2"
         d="M109.3,47.9h-3.8c-0.5,0-0.9-0.4-0.9-0.9v-0.5c0-0.5,0.4-0.9,0.9-0.9h3.8c0.5,0,0.9,0.4,0.9,0.9V47    C110.2,47.5,109.8,47.9,109.3,47.9z"
         id="path3498" /><path
         class="st2"
         d="M109.3,37.5h-3.8c-0.5,0-0.9-0.4-0.9-0.9v-0.5c0-0.5,0.4-0.9,0.9-0.9h3.8c0.5,0,0.9,0.4,0.9,0.9v0.5    C110.2,37.1,109.8,37.5,109.3,37.5z"
         id="path3500" /><rect
         x="105.2"
         y="36.5"
         class="st4"
         width="4.6"
         height="10.1"
         id="rect3502" /><g
         id="g3504"><rect
           x="105.2"
           y="39"
           class="st5"
           width="2.5"
           height="1.1"
           id="rect3506" /><rect
           x="107.3"
           y="43"
           class="st5"
           width="2.5"
           height="1.1"
           id="rect3508" /><rect
           x="105"
           y="41"
           transform="matrix(-1.836970e-16 1 -1 -1.836970e-16 149.0343 -65.9093)"
           class="st5"
           width="5"
           height="1.1"
           id="rect3510" /></g></g><g
       id="g3512"><rect
         x="93.7"
         y="20.8"
         class="st2"
         width="2.1"
         height="4.8"
         id="rect3514" /><rect
         x="97.2"
         y="25.3"
         transform="matrix(-1.836970e-16 1 -1 -1.836970e-16 124.13 -71.5907)"
         class="st2"
         width="1.3"
         height="2"
         id="rect3516" /><rect
         x="97.2"
         y="19.2"
         transform="matrix(-1.836970e-16 1 -1 -1.836970e-16 118.0307 -77.6899)"
         class="st2"
         width="1.3"
         height="2"
         id="rect3518" /><rect
         x="99.9"
         y="20.8"
         class="st2"
         width="2.1"
         height="4.8"
         id="rect3520" /></g><circle
       class="st5"
       cx="23.5"
       cy="28.1"
       r="3.7"
       id="circle3522" /><circle
       class="st1"
       cx="23.5"
       cy="28.1"
       r="1.8"
       id="circle3524" /><g
       id="g3526"><rect
         x="63.6"
         y="54.3"
         class="st4"
         width="0.9"
         height="1.8"
         id="rect3528" /><rect
         x="66.6"
         y="54.3"
         class="st4"
         width="0.9"
         height="1.8"
         id="rect3530" /><rect
         x="64.6"
         y="54.3"
         class="st6"
         width="2.1"
         height="1.8"
         id="rect3532" /></g><g
       id="g3534"><rect
         x="63.6"
         y="57.6"
         class="st4"
         width="0.9"
         height="1.8"
         id="rect3536" /><rect
         x="66.6"
         y="57.6"
         class="st4"
         width="0.9"
         height="1.8"
         id="rect3538" /><rect
         x="64.6"
         y="57.6"
         class="st6"
         width="2.1"
         height="1.8"
         id="rect3540" /></g><g
       id="g3542"><rect
         x="51.2"
         y="63.3"
         class="st4"
         width="0.9"
         height="1.8"
         id="rect3544" /><rect
         x="54.2"
         y="63.3"
         class="st4"
         width="0.9"
         height="1.8"
         id="rect3546" /><rect
         x="52.1"
         y="63.3"
         class="st6"
         width="2.1"
         height="1.8"
         id="rect3548" /></g><g
       id="g3550"><rect
         x="34"
         y="62.2"
         class="st4"
         width="0.9"
         height="1.8"
         id="rect3552" /><rect
         x="37"
         y="62.2"
         class="st4"
         width="0.9"
         height="1.8"
         id="rect3554" /><rect
         x="34.9"
         y="62.2"
         class="st6"
         width="2.1"
         height="1.8"
         id="rect3556" /></g><g
       id="g3558"><rect
         x="18.9"
         y="50.7"
         class="st4"
         width="0.9"
         height="1.8"
         id="rect3560" /><rect
         x="21.9"
         y="50.7"
         class="st4"
         width="0.9"
         height="1.8"
         id="rect3562" /><rect
         x="19.8"
         y="50.7"
         class="st6"
         width="2.1"
         height="1.8"
         id="rect3564" /></g><g
       id="g3566"><rect
         x="39.5"
         y="43.2"
         class="st4"
         width="0.9"
         height="1.8"
         id="rect3568" /><rect
         x="42.5"
         y="43.2"
         class="st4"
         width="0.9"
         height="1.8"
         id="rect3570" /><rect
         x="40.4"
         y="43.2"
         class="st6"
         width="2.1"
         height="1.8"
         id="rect3572" /></g><g
       id="g3574"><rect
         x="44.2"
         y="48.2"
         class="st4"
         width="0.9"
         height="1.8"
         id="rect3576" /><rect
         x="47.2"
         y="48.2"
         class="st4"
         width="0.9"
         height="1.8"
         id="rect3578" /><rect
         x="45.1"
         y="48.2"
         class="st6"
         width="2.1"
         height="1.8"
         id="rect3580" /></g><g
       id="g3582"><rect
         x="32.8"
         y="39.6"
         transform="matrix(-1.836970e-16 1 -1 -1.836970e-16 73.7787 7.1954)"
         class="st4"
         width="0.9"
         height="1.8"
         id="rect3584" /><rect
         x="32.8"
         y="42.6"
         transform="matrix(-1.836970e-16 1 -1 -1.836970e-16 76.795 10.2117)"
         class="st4"
         width="0.9"
         height="1.8"
         id="rect3586" /><rect
         x="32.3"
         y="41.1"
         transform="matrix(-1.836970e-16 1 -1 -1.836970e-16 75.2869 8.7035)"
         class="st6"
         width="2.1"
         height="1.8"
         id="rect3588" /></g><g
       id="g3590"><rect
         x="58.9"
         y="61.4"
         transform="matrix(-1.836970e-16 1 -1 -1.836970e-16 122.5997 3.1468)"
         class="st4"
         width="1.7"
         height="2.9"
         id="rect3592" /><rect
         x="58.9"
         y="66.9"
         transform="matrix(-1.836970e-16 1 -1 -1.836970e-16 128.0772 8.6242)"
         class="st4"
         width="1.7"
         height="2.9"
         id="rect3594" /><rect
         x="57.8"
         y="64.2"
         transform="matrix(-1.836970e-16 1 -1 -1.836970e-16 125.3385 5.8855)"
         class="st3"
         width="3.8"
         height="2.9"
         id="rect3596" /></g><g
       id="g3598"><rect
         x="23.1"
         y="46.3"
         transform="matrix(-1 -1.224647e-16 1.224647e-16 -1 47.5076 95.2487)"
         class="st4"
         width="1.3"
         height="2.6"
         id="rect3600" /><rect
         x="18.9"
         y="46.3"
         transform="matrix(-1 -1.224647e-16 1.224647e-16 -1 39.1589 95.2487)"
         class="st4"
         width="1.3"
         height="2.6"
         id="rect3602" /><rect
         x="20.2"
         y="46.3"
         transform="matrix(-1 -1.224647e-16 1.224647e-16 -1 43.3333 95.2487)"
         class="st3"
         width="2.9"
         height="2.6"
         id="rect3604" /></g><g
       id="g3606"><rect
         x="63.3"
         y="61.4"
         transform="matrix(-1.836970e-16 1 -1 -1.836970e-16 127.0331 -1.2866)"
         class="st4"
         width="1.7"
         height="2.9"
         id="rect3608" /><rect
         x="63.3"
         y="66.9"
         transform="matrix(-1.836970e-16 1 -1 -1.836970e-16 132.5105 4.1909)"
         class="st4"
         width="1.7"
         height="2.9"
         id="rect3610" /><rect
         x="62.3"
         y="64.2"
         transform="matrix(-1.836970e-16 1 -1 -1.836970e-16 129.7718 1.4522)"
         class="st3"
         width="3.8"
         height="2.9"
         id="rect3612" /></g><g
       id="g3614"><rect
         x="70"
         y="13.9"
         transform="matrix(-1.836970e-16 1 -1 -1.836970e-16 85.2554 -55.6613)"
         class="st4"
         width="0.9"
         height="1.8"
         id="rect3616" /><rect
         x="70"
         y="16.9"
         transform="matrix(-1.836970e-16 1 -1 -1.836970e-16 88.2717 -52.645)"
         class="st4"
         width="0.9"
         height="1.8"
         id="rect3618" /><rect
         x="69.4"
         y="15.4"
         transform="matrix(-1.836970e-16 1 -1 -1.836970e-16 86.7635 -54.1532)"
         class="st6"
         width="2.1"
         height="1.8"
         id="rect3620" /></g><g
       id="g3622"><rect
         x="76.7"
         y="13.9"
         transform="matrix(-1.836970e-16 1 -1 -1.836970e-16 91.9513 -62.3573)"
         class="st4"
         width="0.9"
         height="1.8"
         id="rect3624" /><rect
         x="76.7"
         y="16.9"
         transform="matrix(-1.836970e-16 1 -1 -1.836970e-16 94.9676 -59.341)"
         class="st4"
         width="0.9"
         height="1.8"
         id="rect3626" /><rect
         x="76.1"
         y="15.4"
         transform="matrix(-1.836970e-16 1 -1 -1.836970e-16 93.4595 -60.8491)"
         class="st6"
         width="2.1"
         height="1.8"
         id="rect3628" /></g><g
       id="g3630"><rect
         x="73.3"
         y="13.9"
         transform="matrix(-1.836970e-16 1 -1 -1.836970e-16 88.6033 -59.0093)"
         class="st4"
         width="0.9"
         height="1.8"
         id="rect3632" /><rect
         x="73.3"
         y="16.9"
         transform="matrix(-1.836970e-16 1 -1 -1.836970e-16 91.6196 -55.993)"
         class="st4"
         width="0.9"
         height="1.8"
         id="rect3634" /><rect
         x="72.8"
         y="15.4"
         transform="matrix(-1.836970e-16 1 -1 -1.836970e-16 90.1115 -57.5011)"
         class="st3"
         width="2.1"
         height="1.8"
         id="rect3636" /></g><g
       id="g3638"><rect
         x="64.5"
         y="14.9"
         transform="matrix(-1.836970e-16 1 -1 -1.836970e-16 80.8085 -49.2145)"
         class="st4"
         width="0.9"
         height="1.8"
         id="rect3640" /><rect
         x="64.5"
         y="17.9"
         transform="matrix(-1.836970e-16 1 -1 -1.836970e-16 83.8248 -46.1982)"
         class="st4"
         width="0.9"
         height="1.8"
         id="rect3642" /><rect
         x="64"
         y="16.4"
         transform="matrix(-1.836970e-16 1 -1 -1.836970e-16 82.3167 -47.7063)"
         class="st3"
         width="2.1"
         height="1.8"
         id="rect3644" /></g><g
       id="g3646"><rect
         x="30.2"
         y="50.7"
         class="st4"
         width="1.2"
         height="2.4"
         id="rect3648" /><rect
         x="34"
         y="50.7"
         class="st4"
         width="1.2"
         height="2.4"
         id="rect3650" /><rect
         x="31.4"
         y="50.7"
         class="st6"
         width="2.7"
         height="2.4"
         id="rect3652" /></g><g
       id="g3654"><rect
         x="34"
         y="65.1"
         class="st4"
         width="0.9"
         height="1.8"
         id="rect3656" /><rect
         x="37"
         y="65.1"
         class="st4"
         width="0.9"
         height="1.8"
         id="rect3658" /><rect
         x="34.9"
         y="65.1"
         class="st6"
         width="2.1"
         height="1.8"
         id="rect3660" /></g><g
       id="g3662"><rect
         x="15.8"
         y="56"
         class="st2"
         width="11.2"
         height="1.2"
         id="rect3664" /><rect
         x="18.8"
         y="54.9"
         class="st3"
         width="5.1"
         height="3.4"
         id="rect3666" /></g><g
       id="g3668"><rect
         x="27.5"
         y="47.2"
         class="st2"
         width="8.4"
         height="0.9"
         id="rect3670" /><rect
         x="29.8"
         y="46.3"
         class="st3"
         width="3.8"
         height="2.6"
         id="rect3672" /></g><g
       id="g3674"><path
         class="st3"
         d="M55.5,59.6h-1.7c-1.8,0-3.2-1.4-3.2-3.2v-2.5c0-1.8,1.4-3.2,3.2-3.2h1.7c1.8,0,3.2,1.4,3.2,3.2v2.5    C58.7,58.2,57.3,59.6,55.5,59.6z"
         id="path3676" /><circle
         class="st2"
         cx="56.4"
         cy="55.2"
         r="1.7"
         id="circle3678" /></g><rect
       x="43"
       y="54.2"
       class="st3"
       width="3.6"
       height="6.8"
       id="rect3680" /><g
       id="g3682"><g
         id="g3684"><rect
           x="29.8"
           y="55.5"
           class="st2"
           width="7.9"
           height="0.6"
           id="rect3686" /><rect
           x="29.8"
           y="56.9"
           class="st2"
           width="7.9"
           height="0.6"
           id="rect3688" /><rect
           x="29.8"
           y="58.4"
           class="st2"
           width="7.9"
           height="0.6"
           id="rect3690" /><rect
           x="29.8"
           y="59.8"
           class="st2"
           width="7.9"
           height="0.6"
           id="rect3692" /></g><rect
         x="31"
         y="54.9"
         class="st3"
         width="5.5"
         height="6.1"
         id="rect3694" /></g><g
       id="g3696"><rect
         x="93.4"
         y="28.7"
         class="st2"
         width="1.7"
         height="1.7"
         id="rect3698" /><rect
         x="93.4"
         y="31.4"
         class="st2"
         width="1.7"
         height="1.7"
         id="rect3700" /><rect
         x="96.7"
         y="31.4"
         class="st2"
         width="1.7"
         height="1.7"
         id="rect3702" /><rect
         x="99.9"
         y="31.4"
         class="st2"
         width="1.7"
         height="1.7"
         id="rect3704" /><rect
         x="103.1"
         y="31.4"
         class="st2"
         width="1.7"
         height="1.7"
         id="rect3706" /><rect
         x="103.1"
         y="28.7"
         class="st2"
         width="1.7"
         height="1.7"
         id="rect3708" /><rect
         x="96.7"
         y="28.7"
         class="st2"
         width="1.7"
         height="1.7"
         id="rect3710" /></g><g
       id="g3712"><rect
         x="74.7"
         y="50.7"
         class="st2"
         width="3"
         height="2.4"
         id="rect3714" /><rect
         x="79.1"
         y="50.7"
         class="st2"
         width="3"
         height="2.4"
         id="rect3716" /></g><circle
       class="st7"
       cx="26.5"
       cy="11.2"
       r="1.2"
       id="circle3718" /><circle
       class="st7"
       cx="49.7"
       cy="24"
       r="1.2"
       id="circle3720" /></g><g
     id="Layer_5"><text
       id="_x30_.1.0.2.21.0.0.0_1_"
       transform="matrix(6.123234e-17 1 -1 6.123234e-17 25.2612 49.4043)"
       class="st7 st8 st9">R1</text>
<text
       id="_x30_.1.0.2.21.0.0.0_107_"
       transform="matrix(1 0 0 1 21.817 42.0166)"
       class="st7 st8 st9">R15</text>
<text
       id="_x30_.1.0.2.21.0.0.0_110_"
       transform="matrix(1 0 0 1 3.5304 70.3892)"
       class="st7 st8 st9">5V</text>
<text
       id="_x30_.1.0.2.21.0.0.0_111_"
       transform="matrix(6.123234e-17 1 -1 6.123234e-17 19.9741 64.7172)"
       class="st7 st8 st9">GND</text>
<text
       id="_x30_.1.0.2.21.0.0.0_113_"
       transform="matrix(1 0 0 1 27.0628 70.3888)"
       class="st7 st8 st9">GND</text>
<text
       id="_x30_.1.0.2.21.0.0.0_123_"
       transform="matrix(1 0 0 1 51.9039 70.3888)"
       class="st7 st8 st9">GND</text>
<text
       id="_x30_.1.0.2.21.0.0.0_112_"
       transform="matrix(6.123234e-17 1 -1 6.123234e-17 23.4624 64.7172)"
       class="st7 st8 st9">YIN</text>
<text
       id="_x30_.1.0.2.21.0.0.0_114_"
       transform="matrix(6.123234e-17 1 -1 6.123234e-17 39.4897 62.9854)"
       class="st7 st8 st9">3.3V</text>
<text
       id="_x30_.1.0.2.21.0.0.0_115_"
       transform="matrix(6.123234e-17 1 -1 6.123234e-17 43.4487 64.8359)"
       class="st7 st8 st9">SDA</text>
<text
       id="_x30_.1.0.2.21.0.0.0_117_"
       transform="matrix(6.123234e-17 1 -1 6.123234e-17 67.5835 66.6865)"
       class="st7 st8 st9">A0</text>
<text
       id="_x30_.1.0.2.21.0.0.0_118_"
       transform="matrix(1 0 0 1 74.8281 69.6971)"
       class="st7 st8 st9">A1</text>
<text
       id="_x30_.1.0.2.21.0.0.0_119_"
       transform="matrix(1 0 0 1 82.2584 69.6971)"
       class="st7 st8 st9">A2</text>
<text
       id="_x30_.1.0.2.21.0.0.0_120_"
       transform="matrix(1 0 0 1 87.7325 70.5418)"
       class="st7 st8 st9">A3</text>
<text
       id="_x30_.1.0.2.21.0.0.0_121_"
       transform="matrix(1 0 0 1 93.1688 70.9152)"
       class="st7 st8 st9">A4</text>
<text
       id="_x30_.1.0.2.21.0.0.0_122_"
       transform="matrix(1 0 0 1 106.9227 70.3888)"
       class="st7 st8 st9">A5</text>
<text
       id="_x30_.1.0.2.21.0.0.0_116_"
       transform="matrix(6.123234e-17 1 -1 6.123234e-17 47.6597 64.8359)"
       class="st7 st8 st9">SCL</text>
<text
       id="_x30_.1.0.2.21.0.0.0_105_"
       transform="matrix(1 0 0 1 27.3751 26.9145)"
       class="st7 st8 st9">U1</text>
<text
       id="_x30_.1.0.2.21.0.0.0_108_"
       transform="matrix(1 0 0 1 88.9756 23.5348)"
       class="st7 st8 st9">J2</text>
<text
       id="_x30_.1.0.2.21.0.0.0_109_"
       transform="matrix(1 0 0 1 80.1251 57.2079)"
       class="st7 st8 st9">J4</text>
<text
       id="_x30_.1.0.2.21.0.0.0_106_"
       transform="matrix(6.123234e-17 1 -1 6.123234e-17 4.2104 15.6536)"
       class="st7 st8 st9">J3</text>
<text
       id="_x30_.1.0.2.21.0.0.0_104_"
       class="st10"
       style="enable-background:new"
       x="38.984844"
       y="9.7240324"><tspan
         x="42.784843"
         y="13.924032"
         class="st7 st8 st11"
         id="tspan3746"
         style="font-size:3.5px;font-family:OCRA;fill:#ffffff">tinyTILE</tspan></text>
<text
       id="_x30_.1.0.2.21.0.0.0_18_"
       transform="matrix(6.123234e-17 1 -1 6.123234e-17 4.2104 5.9221)"
       class="st7 st8 st9">13</text>
<text
       id="_x30_.1.0.2.21.0.0.0_20_"
       transform="matrix(6.123234e-17 1 -1 6.123234e-17 18.8901 5.9222)"
       class="st7 st8 st9">12</text>
<text
       id="_x30_.1.0.2.21.0.0.0_94_"
       transform="matrix(6.123234e-17 1 -1 6.123234e-17 22.8511 5.9221)"
       class="st7 st8 st9">11</text>
<text
       id="_x30_.1.0.2.21.0.0.0_95_"
       transform="matrix(6.123234e-17 1 -1 6.123234e-17 29.2261 5.9221)"
       class="st7 st8 st9">10</text>
<text
       id="_x30_.1.0.2.21.0.0.0_96_"
       transform="matrix(6.123234e-17 1 -1 6.123234e-17 36.98 5.9221)"
       class="st7 st8 st9">~9</text>
<text
       id="_x30_.1.0.2.21.0.0.0_97_"
       transform="matrix(6.123234e-17 1 -1 6.123234e-17 44.7593 5.9221)"
       class="st7 st8 st9">8</text>
<text
       id="_x30_.1.0.2.21.0.0.0_98_"
       transform="matrix(6.123234e-17 1 -1 6.123234e-17 52.5386 5.9221)"
       class="st7 st8 st9">7</text>
<text
       id="_x30_.1.0.2.21.0.0.0_99_"
       transform="matrix(6.123234e-17 1 -1 6.123234e-17 60.3179 5.9221)"
       class="st7 st8 st9">~6</text>
<text
       id="_x30_.1.0.2.21.0.0.0_100_"
       transform="matrix(6.123234e-17 1 -1 6.123234e-17 68.0972 5.9221)"
       class="st7 st8 st9">~5</text>
<text
       id="_x30_.1.0.2.21.0.0.0_101_"
       transform="matrix(6.123234e-17 1 -1 6.123234e-17 75.8765 5.9221)"
       class="st7 st8 st9">4</text>
<text
       id="_x30_.1.0.2.21.0.0.0_102_"
       transform="matrix(6.123234e-17 1 -1 6.123234e-17 83.6558 5.9221)"
       class="st7 st8 st9">~3</text>
<text
       id="_x30_.1.0.2.21.0.0.0_103_"
       transform="matrix(6.123234e-17 1 -1 6.123234e-17 91.4351 5.9221)"
       class="st7 st8 st9">2</text>
<line
       class="st12"
       x1="16.4"
       y1="71"
       x2="18.8"
       y2="69.2"
       id="line3760" /><line
       class="st12"
       x1="50.6"
       y1="71.8"
       x2="48.8"
       y2="70.1"
       id="line3762" /><line
       class="st12"
       x1="58.7"
       y1="71.8"
       x2="57.3"
       y2="70.5"
       id="line3764" /><line
       class="st12"
       x1="97.3"
       y1="73"
       x2="96"
       y2="71.8"
       id="line3766" /><line
       class="st12"
       x1="23.7"
       y1="45.6"
       x2="24.9"
       y2="43"
       id="line3768" /><line
       class="st12"
       x1="16.8"
       y1="5.7"
       x2="18.2"
       y2="7.2"
       id="line3770" /><g
       id="g3772"><polygon
         class="st13"
         points="40.3,47.8 37.8,45.6 37.8,49.9   "
         id="polygon3774" /><line
         class="st14"
         x1="40.3"
         y1="49.9"
         x2="40.3"
         y2="45.6"
         id="line3776" /></g><g
       id="g3778"><polygon
         class="st13"
         points="14.7,54.9 12.2,52.7 12.2,57   "
         id="polygon3780" /><line
         class="st14"
         x1="14.7"
         y1="57"
         x2="14.7"
         y2="52.7"
         id="line3782" /></g></g></svg>