<svg xmlns="http://www.w3.org/2000/svg" id="genuino101" viewBox="0 0 75.318 53.666">
  <g id="Board">
    <path fill="#0f7391" d="M72.762 13.026v-11.5L71.236 0H7.313a.992.992 0 0 0-.995.993v51.68a.992.992 0 0 0 .994.993H71.77a.992.992 0 0 0 .993-.994V51.11l2.555-2.556V15.58zM70.81 23a.5.5 0 0 1-.5.46.47.47 0 0 1-.458-.46.5.5 0 0 1 .5-.46.47.47 0 0 1 .458.46zm-.46 4.65a.47.47 0 0 1 .46.46.5.5 0 0 1-.5.462.47.47 0 0 1-.46-.46.457.457 0 0 1 .5-.463zm-.5-2.094a.478.478 0 0 1 .5-.46.47.47 0 0 1 .46.46.5.5 0 0 1-.5.46.47.47 0 0 1-.458-.46zm.354-23.426a.41.41 0 0 1 .426.426.426.426 0 0 1-.852 0 .41.41 0 0 1 .43-.427zm-2.556 0a.41.41 0 0 1 .426.426.426.426 0 0 1-.852 0 .41.41 0 0 1 .43-.427zm-2.555 0a.41.41 0 0 1 .426.426.426.426 0 0 1-.86 0 .41.41 0 0 1 .43-.427zm-2.556 0a.41.41 0 0 1 .426.426.426.426 0 1 1-.852 0 .41.41 0 0 1 .43-.427zm-2.555 0a.41.41 0 0 1 .426.426.426.426 0 0 1-.852 0 .41.41 0 0 1 .43-.427zm-2.556 0a.41.41 0 0 1 .426.426.426.426 0 1 1-.852 0 .41.41 0 0 1 .43-.427zM20.34 52.707a1.59 1.59 0 0 1-1.6-1.6 1.613 1.613 0 0 1 1.6-1.6 1.6 1.6 0 0 1 0 3.194zm1.278-48.555a1.59 1.59 0 0 1-1.6-1.6 1.613 1.613 0 0 1 1.6-1.6 1.6 1.6 0 0 1 0 3.194zm3.62-1.17a.41.41 0 0 1-.426-.427.426.426 0 1 1 .852 0 .41.41 0 0 1-.427.426zm2.555 0a.41.41 0 0 1-.426-.427.426.426 0 1 1 .852 0 .41.41 0 0 1-.43.426zm2.556 0a.41.41 0 0 1-.43-.427.426.426 0 1 1 .85 0 .41.41 0 0 1-.43.426zm2.52 0a.41.41 0 0 1-.43-.427.457.457 0 0 1 .42-.426.41.41 0 0 1 .42.42.41.41 0 0 1-.43.42zm1.56 48.554a.426.426 0 1 1 .42-.426.41.41 0 0 1-.43.426zM35.46 2.98a.41.41 0 0 1-.427-.425.426.426 0 1 1 .852 0 .41.41 0 0 1-.426.426zm1.525 48.556a.426.426 0 1 1 .426-.426.41.41 0 0 1-.42.426zM38.018 2.98a.41.41 0 0 1-.426-.425.426.426 0 1 1 .852 0 .41.41 0 0 1-.426.426zm1.526 48.556a.426.426 0 1 1 .426-.426.41.41 0 0 1-.43.426zM40.57 2.98a.41.41 0 0 1-.426-.425.426.426 0 1 1 .852 0 .41.41 0 0 1-.426.426zm1.526 48.556a.426.426 0 1 1 .426-.426.41.41 0 0 1-.426.426zm1.03-48.555a.41.41 0 0 1-.426-.42.426.426 0 1 1 .852 0 .41.41 0 0 1-.426.43zm1.526 48.56a.426.426 0 1 1 .426-.42.41.41 0 0 1-.426.43zm1.03-48.55a.41.41 0 0 1-.427-.42.426.426 0 1 1 .852 0 .41.41 0 0 1-.427.43zm1.525 48.56a.426.426 0 1 1 .426-.42.41.41 0 0 1-.426.43zM48.237 3a.41.41 0 0 1-.426-.425.426.426 0 1 1 .86 0 .41.41 0 0 1-.42.424zm1.526 48.556a.426.426 0 1 1 .426-.426.41.41 0 0 1-.43.424zm2.556 0a.426.426 0 1 1 .42-.426.41.41 0 0 1-.43.424zm-.01-48.56a.41.41 0 0 1-.43-.424.426.426 0 1 1 .85 0 .41.41 0 0 1-.43.426zm2.55 0a.41.41 0 0 1-.43-.424.426.426 0 1 1 .85 0 .41.41 0 0 1-.43.426zM72.72 47.6a1.59 1.59 0 0 1-1.6-1.6 1.613 1.613 0 0 1 1.6-1.6 1.6 1.6 0 0 1 0 3.194zm.18-22.5a.47.47 0 0 1 .46.46.53.53 0 0 1-.5.462.47.47 0 0 1-.46-.46.478.478 0 0 1 .5-.47zm-.49-2.1a.478.478 0 0 1 .5-.46.47.47 0 0 1 .46.46.53.53 0 0 1-.5.46.47.47 0 0 1-.46-.46zm.5 4.65a.47.47 0 0 1 .46.46.53.53 0 0 1-.5.462.47.47 0 0 1-.46-.46.457.457 0 0 1 .495-.463zm-.178-8.163a1.6 1.6 0 1 1 1.6-1.6 1.59 1.59 0 0 1-1.6 1.598z"/>
    <path fill="#fff" d="M46.142 47.632h4.898v6.034h-4.898zM35.87 5.5h-.27a.073.073 0 0 1-.05-.015.083.083 0 0 1 0-.1.072.072 0 0 1 .05-.015h.337a.063.063 0 0 1 .05.02.07.07 0 0 1 .017.046v.524a.07.07 0 0 1-.017.04.063.063 0 0 1-.05.02.062.062 0 0 1-.05-.02.07.07 0 0 1-.017-.047v-.2h-.77v.2a.07.07 0 0 1-.015.047.076.076 0 0 1-.1 0 .07.07 0 0 1-.017-.047v-.328h.9zM35.1 5a.07.07 0 0 1-.015.048.076.076 0 0 1-.1 0A.07.07 0 0 1 34.968 5v-.462a.13.13 0 0 1 .133-.133h.26a.22.22 0 0 1 .08.01.14.14 0 0 1 .06.042.147.147 0 0 1 .06-.04.206.206 0 0 1 .08-.017h.26a.13.13 0 0 1 .14.133V5a.07.07 0 0 1-.01.048.063.063 0 0 1-.05.02.062.062 0 0 1-.05-.02A.07.07 0 0 1 35.9 5v-.462h-.22a.12.12 0 0 0-.076.018.06.06 0 0 0-.025.05v.26a.07.07 0 0 1-.02.048.076.076 0 0 1-.1 0 .07.07 0 0 1-.02-.047V4.6a.058.058 0 0 0-.03-.05.12.12 0 0 0-.08-.012h-.22zm3.326.5h-.27a.073.073 0 0 1-.05-.015.083.083 0 0 1 0-.1.072.072 0 0 1 .05-.015h.337a.063.063 0 0 1 .05.02.07.07 0 0 1 .017.046v.524a.07.07 0 0 1-.017.04.063.063 0 0 1-.05.02.062.062 0 0 1-.05-.02.07.07 0 0 1-.017-.047v-.2h-.77v.2A.07.07 0 0 1 37.64 6a.076.076 0 0 1-.1 0 .07.07 0 0 1-.017-.047v-.328h.9zm0-.57v-.46a.07.07 0 0 1 .016-.047.063.063 0 0 1 .05-.02.062.062 0 0 1 .05.02.07.07 0 0 1 .018.047v.59h-.434a.133.133 0 0 1-.15-.15v-.37h-.318V5a.07.07 0 0 1-.016.048.076.076 0 0 1-.1 0 .07.07 0 0 1-.02-.048v-.446a.207.207 0 0 1 .01-.06.126.126 0 0 1 .03-.05.117.117 0 0 1 .05-.032.245.245 0 0 1 .068-.008h.273a.247.247 0 0 1 .068.008.113.113 0 0 1 .05.032.128.128 0 0 1 .03.05.193.193 0 0 1 .01.06v.374zm2.554.57h-.27a.073.073 0 0 1-.05-.015.083.083 0 0 1 0-.1.072.072 0 0 1 .05-.015h.338a.063.063 0 0 1 .05.02.07.07 0 0 1 .017.046v.524a.07.07 0 0 1-.017.04.063.063 0 0 1-.05.02.062.062 0 0 1-.05-.02.07.07 0 0 1-.017-.047v-.2h-.76v.2A.07.07 0 0 1 40.2 6a.076.076 0 0 1-.1 0 .07.07 0 0 1-.018-.047v-.328h.9zm0-.962h-.27a.073.073 0 0 1-.05-.015.083.083 0 0 1 0-.1.072.072 0 0 1 .05-.015h.338a.063.063 0 0 1 .05.02.07.07 0 0 1 .017.046V5a.07.07 0 0 1-.016.048.063.063 0 0 1-.06.02.062.062 0 0 1-.05-.02.07.07 0 0 1-.01-.048v-.2h-.77V5a.07.07 0 0 1-.02.048.076.076 0 0 1-.1 0A.07.07 0 0 1 40.08 5v-.333h.9zm2.556.962h-.27a.073.073 0 0 1-.05-.015.083.083 0 0 1 0-.1.072.072 0 0 1 .05-.015h.337a.063.063 0 0 1 .05.02.07.07 0 0 1 .017.046v.524a.07.07 0 0 1-.017.04.063.063 0 0 1-.05.02.062.062 0 0 1-.05-.02.07.07 0 0 1-.017-.047v-.2h-.77v.2A.07.07 0 0 1 42.75 6a.076.076 0 0 1-.1 0 .07.07 0 0 1-.015-.047v-.328h.9zm-.902-.962a.132.132 0 0 1 .133-.133h.77a.13.13 0 0 1 .132.133v.39a.132.132 0 0 1-.14.134h-.77a.132.132 0 0 1-.13-.133zm.9 0h-.77v.39h.77zm2.13-.003v.458a.064.064 0 0 1-.02.047.063.063 0 0 1-.046.02h-.34a.066.066 0 0 1-.047-.02.063.063 0 0 1-.02-.047V4.47a.065.065 0 0 1 .02-.048.064.064 0 0 1 .05-.02h.9a.066.066 0 0 1 .05.018.063.063 0 0 1 .02.05v.066a.062.062 0 0 1-.02.048.066.066 0 0 1-.04.02.064.064 0 0 1-.06-.068zm-.133 0h-.21v.39h.21zm2.22.065a.064.064 0 0 1 .02-.05.068.068 0 0 1 .05-.016h.39a.145.145 0 0 1 .01-.054.172.172 0 0 1 .04-.05.12.12 0 0 1 .09-.03h.32a.134.134 0 0 1 .1.036.13.13 0 0 1 .04.1v.39a.124.124 0 0 1-.13.134h-.31a.12.12 0 0 1-.08-.027.164.164 0 0 1-.04-.05.147.147 0 0 1-.01-.056h-.38a.07.07 0 0 1-.05-.017.063.063 0 0 1-.02-.05zm.45.067h-.31v.125h.32zm.45-.133h-.32v.39h.32zm3.32.393a.067.067 0 0 1 .05.02.066.066 0 0 1 0 .1.068.068 0 0 1-.04.017h-.07a.068.068 0 0 1-.04-.02.06.06 0 0 1-.02-.047V4.4h.4a.072.072 0 0 1 .04.007.228.228 0 0 1 .03.03l.16.185a.14.14 0 0 0 .04.033.135.135 0 0 0 .05 0h.26a.067.067 0 0 1 0 .133h-.32a.144.144 0 0 1-.04 0 .115.115 0 0 1-.03-.03l-.16-.184a.085.085 0 0 0-.1-.04H52zm2.99 0v-.445a.08.08 0 0 1 .02-.064.113.113 0 0 1 .07-.016h.3a.086.086 0 0 1 .07.02.1.1 0 0 1 .02.067v.48a.094.094 0 0 1-.02.06.09.09 0 0 1-.06.02h-.88a.087.087 0 0 1-.05-.02.05.05 0 0 1-.02-.05V4.9a.06.06 0 0 1 .02-.045.07.07 0 0 1 .1 0 .064.064 0 0 1 .02.05zm.14 0h.2v-.392h-.2zm2.31-.132V4.55a.2.2 0 0 1 .01-.06.127.127 0 0 1 .03-.047.117.117 0 0 1 .05-.033.217.217 0 0 1 .07-.008h.29a.226.226 0 0 1 .06.006.124.124 0 0 1 .05.027.11.11 0 0 1 .03.047.2.2 0 0 1 .01.067v.3a.14.14 0 0 1 0 .04c0 .01-.01.02-.02.04l-.02.05a.418.418 0 0 1-.03.06.05.05 0 0 1-.04.01.067.067 0 0 1-.04-.02.06.06 0 0 1-.02-.03.11.11 0 0 1 .01-.05l.02-.04.02-.04a.08.08 0 0 0 .01-.03v-.31h-.32v.39H57v-.46a.07.07 0 0 1 .01-.05.075.075 0 0 1 .1 0 .068.068 0 0 1 .02.04v.32zm2.67-.195h-.38a.075.075 0 0 1-.05-.015.08.08 0 0 1 0-.1.073.073 0 0 1 .05-.016h.39a.07.07 0 0 1 .02-.05.075.075 0 0 1 .1 0 .068.068 0 0 1 .02.04h.27a.067.067 0 0 1 0 .13h-.27v.39h-.63a.073.073 0 0 1-.04-.02.08.08 0 0 1 0-.1.072.072 0 0 1 .05-.02h.5zm2.13.393a.07.07 0 0 1-.01.048.076.076 0 0 1-.1 0 .07.07 0 0 1-.02-.04v-.46a.13.13 0 0 1 .14-.13h.26a.22.22 0 0 1 .08.01.14.14 0 0 1 .06.04.147.147 0 0 1 .06-.04.206.206 0 0 1 .07-.01H63a.13.13 0 0 1 .134.14V5a.07.07 0 0 1-.013.048.063.063 0 0 1-.05.02.062.062 0 0 1-.05-.02.07.07 0 0 1-.01-.046v-.46h-.22a.12.12 0 0 0-.07.02.06.06 0 0 0-.02.047v.26a.07.07 0 0 1-.01.05.076.076 0 0 1-.1 0 .07.07 0 0 1-.01-.05V4.6a.058.058 0 0 0-.02-.05.12.12 0 0 0-.07-.017h-.22zm3.33-.066V4.47a.07.07 0 0 1 .02-.05.063.063 0 0 1 .05-.018.062.062 0 0 1 .05.02.07.07 0 0 1 .02.046v.592h-.43a.133.133 0 0 1-.15-.15v-.375h-.32v.458a.07.07 0 0 1-.01.048.076.076 0 0 1-.1 0 .07.07 0 0 1-.02-.04v-.45a.207.207 0 0 1 .01-.06.126.126 0 0 1 .03-.04.117.117 0 0 1 .05-.03.245.245 0 0 1 .07-.01h.27a.247.247 0 0 1 .07.01.113.113 0 0 1 .05.03.128.128 0 0 1 .03.05.193.193 0 0 1 .01.06v.37zm-20.9 44.037v-.218a.173.173 0 0 1 .01-.053.115.115 0 0 1 .03-.043.1.1 0 0 1 .05-.03.2.2 0 0 1 .06-.006h.26a.208.208 0 0 1 .05.006.113.113 0 0 1 .04.024.1.1 0 0 1 .04.042.18.18 0 0 1 .01.06v.263a.124.124 0 0 1 0 .03c0 .01-.01.02-.01.04l-.02.04a.423.423 0 0 1-.03.05.046.046 0 0 1-.04.01.06.06 0 0 1-.04-.02.053.053 0 0 1-.02-.04.1.1 0 0 1 .01-.04l.01-.04.02-.04a.07.07 0 0 0 .01-.03v-.27h-.28v.35h-.52v-.41a.063.063 0 0 1 .02-.04.067.067 0 0 1 .09 0 .064.064 0 0 1 .02.04v.29zm-.15-1.084h-.19a.053.053 0 0 1-.06-.06.052.052 0 0 1 .06-.06h.22a.07.07 0 0 1 .02.006l.58.227a.247.247 0 0 1 .04.018c.01.01.02.02.02.05a.047.047 0 0 1-.01.04.156.156 0 0 1-.04.03l-.58.23a.07.07 0 0 1-.02.01h-.22a.06.06 0 1 1 0-.12h.19l.45-.17zM57 48.968a.157.157 0 0 1-.045-.02.048.048 0 0 1-.015-.04.05.05 0 0 1 .016-.04.127.127 0 0 1 .045-.022l.8-.23a.04.04 0 0 1 .04.014.06.06 0 0 1 .02.044.053.053 0 0 1-.01.04.1.1 0 0 1-.04.025l-.14.04v.25l.14.04a.106.106 0 0 1 .05.02.053.053 0 0 1 .02.04.06.06 0 0 1-.02.04.04.04 0 0 1-.04.01zm.222-.062l.32.1v-.187zm-.282-1.026a.118.118 0 0 1 .12-.12h.685a.115.115 0 0 1 .12.12v.348a.117.117 0 0 1-.12.12h-.685a.118.118 0 0 1-.12-.12zm.8 0h-.684v.348h.685zM29.827 7.7a.165.165 0 0 1-.05-.024.053.053 0 0 1-.018-.044.056.056 0 0 1 .01-.045.138.138 0 0 1 .05-.024l.9-.257a.045.045 0 0 1 .04.015.067.067 0 0 1 .02.05.06.06 0 0 1-.02.05.112.112 0 0 1-.05.03l-.16.05v.29l.16.05a.114.114 0 0 1 .04.03.06.06 0 0 1 .02.05.067.067 0 0 1-.02.05.045.045 0 0 1-.05.02zm.248-.07l.36.108v-.21zm.653-.763a.067.067 0 1 1 0 .133h-.97v-.447a.22.22 0 0 1 .055-.147.174.174 0 0 1 .14-.063h.09a.17.17 0 0 1 .14.062.227.227 0 0 1 .05.147v.122l.43-.3a.316.316 0 0 1 .035-.022.076.076 0 0 1 .035-.01.06.06 0 0 1 .045.018.068.068 0 0 1 .018.05.055.055 0 0 1-.01.032.1.1 0 0 1-.027.026l-.53.367v.03zm-.628 0v-.3a.194.194 0 0 0-.01-.068.044.044 0 0 0-.046-.03h-.092a.047.047 0 0 0-.047.03.162.162 0 0 0-.013.06v.3zm.56-1.417a.07.07 0 0 1 .017-.047.063.063 0 0 1 .05-.02.062.062 0 0 1 .05.02.07.07 0 0 1 .018.047v.59H29.76v-.59a.07.07 0 0 1 .015-.047.075.075 0 0 1 .1 0 .068.068 0 0 1 .017.047v.458h.318v-.2a.072.072 0 0 1 .016-.048.063.063 0 0 1 .05-.02.062.062 0 0 1 .05.02.07.07 0 0 1 .018.047v.2h.318zm-.9-.366v-.59a.07.07 0 0 1 .015-.05.075.075 0 0 1 .1 0 .068.068 0 0 1 .017.048v.458h.205v-.327a.07.07 0 0 1 .016-.048.063.063 0 0 1 .05-.02.062.062 0 0 1 .05.02.07.07 0 0 1 .018.047v.327h.5a.067.067 0 1 1 0 .13zm-1.59 1.248a.3.3 0 0 1 .055-.035.128.128 0 0 1 .056-.01.137.137 0 0 1 .12.046.183.183 0 0 1 .04.12v.293a.274.274 0 0 1-.01.074.164.164 0 0 1-.03.06.185.185 0 0 1-.05.046.146.146 0 0 1-.07.017.088.088 0 0 1-.05-.018.062.062 0 0 1-.02-.053.057.057 0 0 1 .02-.045.072.072 0 0 1 .05-.017.04.04 0 0 0 .04-.013.086.086 0 0 0 .01-.045v-.317c0-.01 0-.016-.01-.016a.034.034 0 0 0-.02 0l-.02.01-.59.45a.232.232 0 0 1-.05.03.14.14 0 0 1-.06.01.123.123 0 0 1-.11-.05.247.247 0 0 1-.03-.07.29.29 0 0 1-.01-.07v-.28a.243.243 0 0 1 .01-.08.163.163 0 0 1 .04-.06.2.2 0 0 1 .06-.05.148.148 0 0 1 .07-.02.086.086 0 0 1 .05.02.072.072 0 0 1 0 .1.06.06 0 0 1-.04.02.048.048 0 0 0-.04.01.09.09 0 0 0-.01.05v.31a.015.015 0 0 0 .02.02.038.038 0 0 0 .02-.01l.02-.01zm-.642-.477V5.9a.105.105 0 0 1-.015.06.058.058 0 0 1-.052.02.06.06 0 0 1-.05-.02.088.088 0 0 1-.01-.056v-.218a.21.21 0 0 1 .03-.12.266.266 0 0 1 .1-.08l.24-.118a.465.465 0 0 1 .08-.03.283.283 0 0 1 .08-.01.275.275 0 0 1 .07.01.434.434 0 0 1 .08.03l.24.12a.222.222 0 0 1 .1.082.25.25 0 0 1 .03.128v.22a.07.07 0 0 1-.02.05.063.063 0 0 1-.05.018.062.062 0 0 1-.04-.02.07.07 0 0 1-.02-.047v-.07zm.77-.133V5.7a.132.132 0 0 0-.01-.06.1.1 0 0 0-.046-.033l-.237-.117a.456.456 0 0 0-.046-.02.125.125 0 0 0-.04-.005.15.15 0 0 0-.07.014l-.05.02-.23.11a.105.105 0 0 0-.05.03.18.18 0 0 0-.01.06v.01zm-.835-.956a.165.165 0 0 1-.05-.024.053.053 0 0 1-.018-.044.056.056 0 0 1 .017-.045.138.138 0 0 1 .05-.024l.9-.26a.045.045 0 0 1 .046.01.067.067 0 0 1 .02.05.06.06 0 0 1-.018.04.112.112 0 0 1-.047.02l-.16.05v.28l.16.05a.114.114 0 0 1 .046.02.06.06 0 0 1 .01.04.067.067 0 0 1-.02.05.045.045 0 0 1-.05.01zm.248-.07l.36.108v-.21zm-2.18 1.636a.3.3 0 0 1 .06-.035.128.128 0 0 1 .06-.01.137.137 0 0 1 .11.046.183.183 0 0 1 .04.12v.293a.274.274 0 0 1-.01.074.164.164 0 0 1-.03.06.185.185 0 0 1-.05.046.146.146 0 0 1-.07.017.088.088 0 0 1-.05-.018.062.062 0 0 1-.02-.053.057.057 0 0 1 .02-.045.072.072 0 0 1 .05-.017.04.04 0 0 0 .04-.013.086.086 0 0 0 .01-.045v-.317c0-.01 0-.016-.01-.016a.034.034 0 0 0-.02 0l-.02.01-.59.45a.232.232 0 0 1-.05.03.14.14 0 0 1-.05.01.123.123 0 0 1-.11-.04.247.247 0 0 1-.03-.07.29.29 0 0 1 0-.07v-.28a.243.243 0 0 1 .01-.08.163.163 0 0 1 .04-.06.2.2 0 0 1 .06-.05.148.148 0 0 1 .07-.02.086.086 0 0 1 .06.02.072.072 0 0 1 0 .1.06.06 0 0 1-.04.01.048.048 0 0 0-.04.01.09.09 0 0 0-.01.05v.31a.015.015 0 0 0 .01.01.038.038 0 0 0 .02-.01l.02-.01zm.27-.705a.22.22 0 0 1-.03.12.237.237 0 0 1-.1.08l-.24.123a.368.368 0 0 1-.07.027.263.263 0 0 1-.07.01.326.326 0 0 1-.14-.038l-.24-.13a.2.2 0 0 1-.13-.21v-.22a.074.074 0 0 1 .02-.05.073.073 0 0 1 .1 0 .07.07 0 0 1 .02.04v.22a.122.122 0 0 0 .01.06.125.125 0 0 0 .05.03l.23.11a.333.333 0 0 0 .05.02.175.175 0 0 0 .05.01.15.15 0 0 0 .04 0 .3.3 0 0 0 .06-.03l.23-.11a.107.107 0 0 0 .05-.04.137.137 0 0 0 .01-.07v-.22a.075.075 0 0 1 .02-.05.073.073 0 0 1 .1 0 .072.072 0 0 1 .02.04zm-.13-1.19a.07.07 0 0 1 .02-.05.063.063 0 0 1 .05-.02.062.062 0 0 1 .05.02.07.07 0 0 1 .02.048v.59h-.97a.067.067 0 1 1 0-.132h.84zM35.85 16.59v.037a.054.054 0 0 1-.107 0v-.145h.53v.145a.053.053 0 0 1-.104 0v-.038h-.1v.66a.053.053 0 1 1-.11 0v-.67zm.863.31l-.19-.327-.01-.017a.05.05 0 0 1 0-.022.046.046 0 0 1 .02-.035.052.052 0 0 1 .04-.02.046.046 0 0 1 .033.01.223.223 0 0 1 .028.04l.15.25.15-.26.02-.04a.046.046 0 0 1 .04-.02.052.052 0 0 1 .037.01.046.046 0 0 1 .02.03.054.054 0 0 1 0 .02l-.01.02-.18.32.19.32.01.01a.053.053 0 0 1 0 .02.047.047 0 0 1-.01.03.05.05 0 0 1-.03.02.046.046 0 0 1-.03-.01.227.227 0 0 1-.03-.04l-.15-.26-.15.25-.01.03a.053.053 0 0 1-.04.02.053.053 0 0 1-.04-.01.047.047 0 0 1-.01-.04.05.05 0 0 1 0-.02l.01-.02zm.67.374a.173.173 0 0 1-.02.026.042.042 0 0 1-.03.01.054.054 0 0 1-.033-.014.045.045 0 0 1-.015-.036.056.056 0 0 1 0-.023.362.362 0 0 1 .018-.033l.4-.682a.117.117 0 0 1 .024-.03.043.043 0 0 1 .03-.01.054.054 0 0 1 .036.014.047.047 0 0 1 .015.036.083.083 0 0 1 0 .02.084.084 0 0 1-.01.02zm.77-.016a.054.054 0 0 1-.103 0v-.775h.36a.176.176 0 0 1 .12.043.14.14 0 0 1 .05.11v.074a.135.135 0 0 1-.05.11.182.182 0 0 1-.12.042h-.1l.24.343a.31.31 0 0 1 .018.028.06.06 0 0 1 .008.028.046.046 0 0 1-.015.04.054.054 0 0 1-.04.02.044.044 0 0 1-.02-.01.08.08 0 0 1-.02-.02l-.29-.42h-.02zm0-.5h.24a.156.156 0 0 0 .054-.008.035.035 0 0 0 .02-.036v-.073a.038.038 0 0 0-.02-.03.13.13 0 0 0-.053-.01h-.237zm.86.142l-.19-.327-.01-.017a.053.053 0 0 1 0-.022.046.046 0 0 1 .02-.035.052.052 0 0 1 .04-.02.046.046 0 0 1 .033.01.215.215 0 0 1 .028.04l.15.25.148-.26.02-.04a.046.046 0 0 1 .04-.02.05.05 0 0 1 .037.01.046.046 0 0 1 .01.03.054.054 0 0 1 0 .02l-.02.01-.19.33.19.32.01.01a.053.053 0 0 1 0 .02.047.047 0 0 1-.01.04.05.05 0 0 1-.04.01.047.047 0 0 1-.04-.01.247.247 0 0 1-.03-.04l-.15-.26-.15.25-.02.02a.055.055 0 0 1-.09.01.046.046 0 0 1-.02-.038.047.047 0 0 1 0-.02l.01-.02zm-2.78-5.39a.056.056 0 0 1 .04.014.05.05 0 0 1 .017.04.05.05 0 0 1-.013.04.057.057 0 0 1-.037.013h-.474v-.775a.054.054 0 1 1 .107 0v.67zm-.49 7.147h.48a.056.056 0 0 1 .04.013.06.06 0 0 1 0 .08.057.057 0 0 1-.04.013h-.363v.164h.26a.058.058 0 0 1 .038.013.05.05 0 0 1 .015.04.05.05 0 0 1-.015.04.055.055 0 0 1-.038.014h-.263v.4a.054.054 0 1 1-.107 0zm.98.053a.128.128 0 0 1 .02-.04.043.043 0 0 1 .038-.013.044.044 0 0 1 .04.014.105.105 0 0 1 .02.05l.21.72a.036.036 0 0 1-.01.04.054.054 0 0 1-.04.02.048.048 0 0 1-.03-.01.09.09 0 0 1-.02-.03l-.04-.13h-.23l-.04.13a.093.093 0 0 1-.02.04.047.047 0 0 1-.03.02.053.053 0 0 1-.04-.01.036.036 0 0 1-.01-.04zm.06.2l-.086.29h.168zm.673.575a.2.2 0 0 1-.074-.012.165.165 0 0 1-.09-.1.28.28 0 0 1-.01-.07v-.593a.054.054 0 1 1 .108 0v.59a.087.087 0 0 0 .017.06.068.068 0 0 0 .05.015h.18a.07.07 0 0 0 .054-.016.088.088 0 0 0 .02-.06v-.59a.053.053 0 1 1 .11 0v.59a.27.27 0 0 1 0 .07.144.144 0 0 1-.03.05.153.153 0 0 1-.05.04.21.21 0 0 1-.07.01zm1.07-.105a.055.055 0 0 1 .04.012.048.048 0 0 1 .014.04.05.05 0 0 1-.014.04.056.056 0 0 1-.04.013h-.472v-.775a.054.054 0 0 1 .108 0v.67zm.4-.617v.037a.053.053 0 0 1-.105 0v-.145h.53v.145a.053.053 0 0 1-.1 0v-.038h-.1v.67a.053.053 0 1 1-.1 0v-.67zm1.05 30.177a.06.06 0 1 1 0 .12h-.863v-.4a.2.2 0 0 1 .047-.13.156.156 0 0 1 .123-.057h.08a.15.15 0 0 1 .125.055.2.2 0 0 1 .048.13v.11l.383-.266a.308.308 0 0 1 .03-.02.066.066 0 0 1 .03-.01.052.052 0 0 1 .04.018.06.06 0 0 1 .01.043.05.05 0 0 1-.01.03.09.09 0 0 1-.02.022l-.47.327v.028zm-.56 0v-.262a.172.172 0 0 0-.01-.06.038.038 0 0 0-.04-.025h-.08a.042.042 0 0 0-.043.025.14.14 0 0 0-.01.06v.264zm.5-1.26a.065.065 0 0 1 .014-.044.056.056 0 0 1 .047-.017.055.055 0 0 1 .046.01.062.062 0 0 1 .017.04v.52h-.922v-.53a.063.063 0 0 1 .015-.05.067.067 0 0 1 .09 0 .064.064 0 0 1 .013.04v.4h.284v-.17a.065.065 0 0 1 .015-.05.068.068 0 0 1 .09 0 .063.063 0 0 1 .014.04v.18h.28zm-.113-.872a.26.26 0 0 1 .05-.032.117.117 0 0 1 .05-.01.12.12 0 0 1 .1.042.163.163 0 0 1 .033.107v.26a.246.246 0 0 1-.01.067.146.146 0 0 1-.03.054.157.157 0 0 1-.05.04.128.128 0 0 1-.06.016.08.08 0 0 1-.05-.016.057.057 0 0 1-.02-.047.05.05 0 0 1 .018-.04.063.063 0 0 1 .045-.02.037.037 0 0 0 .03-.01.077.077 0 0 0 .01-.04v-.28c0-.01 0-.02-.02-.02a.03.03 0 0 0-.02.01l-.02.01-.53.4a.217.217 0 0 1-.05.03.126.126 0 0 1-.05.01.11.11 0 0 1-.1-.04.218.218 0 0 1-.03-.06.273.273 0 0 1-.01-.06v-.25a.215.215 0 0 1 .01-.07.144.144 0 0 1 .03-.06.173.173 0 0 1 .05-.04.13.13 0 0 1 .06-.02.075.075 0 0 1 .05.01.056.056 0 0 1 .02.05.055.055 0 0 1-.02.04.054.054 0 0 1-.04.01c-.02 0-.04 0-.04.01a.082.082 0 0 0-.01.04v.28a.014.014 0 0 0 .01.01.036.036 0 0 0 .01-.01l.01-.01zm.112-.836a.065.065 0 0 1 .012-.043.056.056 0 0 1 .048-.02.055.055 0 0 1 .045.01.062.062 0 0 1 .015.04v.53h-.92v-.53a.063.063 0 0 1 .015-.05.067.067 0 0 1 .09 0 .064.064 0 0 1 .014.04v.4h.283v-.17a.065.065 0 0 1 .015-.05.068.068 0 0 1 .09 0 .063.063 0 0 1 .015.04v.18h.283zm-.69-.446h.042a.06.06 0 1 1 0 .12h-.16v-.587h.16a.06.06 0 1 1 0 .11h-.04v.11h.745a.06.06 0 1 1 0 .12h-.746zm2.56 3.6a.065.065 0 0 1-.015.044.068.068 0 0 1-.09 0 .064.064 0 0 1-.016-.042v-.408a.116.116 0 0 1 .117-.12h.23a.2.2 0 0 1 .07.01.126.126 0 0 1 .05.037.132.132 0 0 1 .05-.036.186.186 0 0 1 .07-.01h.23a.115.115 0 0 1 .12.12v.41a.065.065 0 0 1-.01.05.056.056 0 0 1-.04.02.055.055 0 0 1-.04-.01.062.062 0 0 1-.02-.04v-.41h-.2a.108.108 0 0 0-.06.02.052.052 0 0 0-.02.04v.24a.062.062 0 0 1-.01.04.056.056 0 0 1-.04.02.054.054 0 0 1-.04-.01.06.06 0 0 1-.02-.04v-.24a.05.05 0 0 0-.02-.04.108.108 0 0 0-.07-.01h-.2zm.13-1.26h-.19a.06.06 0 1 1 0-.12h.21a.07.07 0 0 1 .02.007l.58.226a.194.194 0 0 1 .04.02c.01 0 .014.02.014.04a.048.048 0 0 1-.02.03.148.148 0 0 1-.04.02l-.58.22a.07.07 0 0 1-.02 0h-.22a.052.052 0 0 1-.06-.06.053.053 0 0 1 .06-.06h.19l.45-.18zm-.13-.446a.065.065 0 0 1-.014.043.068.068 0 0 1-.09 0 .064.064 0 0 1-.01-.042v-.4a.116.116 0 0 1 .12-.12h.23a.2.2 0 0 1 .07.01.126.126 0 0 1 .05.04.132.132 0 0 1 .05-.03.186.186 0 0 1 .07-.01h.23a.115.115 0 0 1 .12.12v.41a.065.065 0 0 1-.01.05.056.056 0 0 1-.05.02.055.055 0 0 1-.04-.01.062.062 0 0 1-.01-.04v-.41h-.2a.108.108 0 0 0-.06.01.052.052 0 0 0-.02.05v.23a.062.062 0 0 1-.01.04.056.056 0 0 1-.05.02.054.054 0 0 1-.04-.02.06.06 0 0 1-.01-.04v-.24a.05.05 0 0 0-.02-.04.108.108 0 0 0-.07-.02h-.2zm17.778 1.548a.157.157 0 0 1-.047-.02.048.048 0 0 1-.012-.04.05.05 0 0 1 .017-.04.127.127 0 0 1 .05-.022l.8-.23a.04.04 0 0 1 .04.014.06.06 0 0 1 .02.044.053.053 0 0 1-.01.04.1.1 0 0 1-.04.025l-.14.04v.25l.14.04a.106.106 0 0 1 .04.02.053.053 0 0 1 .02.04.06.06 0 0 1-.02.04.04.04 0 0 1-.04.01zm.22-.062l.32.1v-.187zm.523-1.026h-.24a.065.065 0 0 1-.042-.015.057.057 0 0 1-.015-.046.058.058 0 0 1 .01-.05.065.065 0 0 1 .04-.02h.3a.057.057 0 0 1 .04.01.062.062 0 0 1 .01.04v.46a.064.064 0 0 1-.02.04.068.068 0 0 1-.09 0 .062.062 0 0 1-.02-.05v-.17h-.68v.17a.064.064 0 0 1-.02.04.057.057 0 0 1-.04.02.057.057 0 0 1-.05-.02.064.064 0 0 1-.01-.05v-.29h.8zm1.82 1.088a.157.157 0 0 1-.045-.02.048.048 0 0 1-.01-.04.05.05 0 0 1 .02-.04.127.127 0 0 1 .05-.022l.8-.23a.04.04 0 0 1 .04.014.06.06 0 0 1 .02.044.053.053 0 0 1-.02.04.1.1 0 0 1-.04.025l-.14.04v.25l.14.04a.106.106 0 0 1 .04.02.053.053 0 0 1 .02.04.06.06 0 0 1-.02.04.04.04 0 0 1-.04.01zm.22-.062l.32.1v-.187zm.52-.678v-.408a.064.064 0 0 1 .014-.043.068.068 0 0 1 .09 0 .062.062 0 0 1 .016.042v.52H62.6a.12.12 0 0 1-.134-.14v-.34h-.284v.4a.064.064 0 0 1-.014.04.057.057 0 0 1-.046.02.057.057 0 0 1-.045-.02.064.064 0 0 1-.013-.04v-.4a.19.19 0 0 1 .007-.06.113.113 0 0 1 .03-.05.1.1 0 0 1 .05-.03.208.208 0 0 1 .07-.01h.24a.212.212 0 0 1 .06.01.1.1 0 0 1 .05.02.113.113 0 0 1 .03.04.187.187 0 0 1 .01.05v.33zm1.81.74a.157.157 0 0 1-.045-.02.048.048 0 0 1-.01-.04.05.05 0 0 1 .02-.04.127.127 0 0 1 .05-.022l.8-.23a.04.04 0 0 1 .04.014.06.06 0 0 1 .02.044.053.053 0 0 1-.02.04.1.1 0 0 1-.04.025l-.14.04v.25l.14.04a.106.106 0 0 1 .04.02.053.053 0 0 1 .02.04.06.06 0 0 1-.02.04.04.04 0 0 1-.04.01zm.22-.062l.32.1v-.187zm-.16-.62a.064.064 0 0 1-.015.044.057.057 0 0 1-.04.017.057.057 0 0 1-.04-.017.064.064 0 0 1-.01-.042v-.408a.116.116 0 0 1 .12-.12h.23a.21.21 0 0 1 .07.01.133.133 0 0 1 .05.037.134.134 0 0 1 .05-.036.177.177 0 0 1 .06-.01h.23a.115.115 0 0 1 .12.12v.41a.064.064 0 0 1-.01.05.068.068 0 0 1-.09 0 .062.062 0 0 1-.01-.04v-.41h-.2a.108.108 0 0 0-.07.02.053.053 0 0 0-.02.05v.23a.063.063 0 0 1-.01.05.067.067 0 0 1-.09 0 .062.062 0 0 1-.01-.04v-.23a.052.052 0 0 0-.02-.04.108.108 0 0 0-.07-.01h-.2zm2.497.682a.157.157 0 0 1-.046-.02.048.048 0 0 1-.015-.04.05.05 0 0 1 .015-.04.127.127 0 0 1 .043-.022l.8-.23a.04.04 0 0 1 .04.014.06.06 0 0 1 .02.044.053.053 0 0 1-.018.04.1.1 0 0 1-.043.025l-.15.04v.25l.14.04a.106.106 0 0 1 .04.02.053.053 0 0 1 .01.04.06.06 0 0 1-.02.04.04.04 0 0 1-.04.01zm.22-.062l.322.1v-.187zm.223-.968h-.35a.066.066 0 0 1-.04-.014.057.057 0 0 1-.02-.046.056.056 0 0 1 .017-.045.064.064 0 0 1 .043-.013h.346a.064.064 0 0 1 .013-.043.057.057 0 0 1 .044-.017.057.057 0 0 1 .04.017.064.064 0 0 1 .01.042h.24a.06.06 0 0 1 0 .11h-.24v.35h-.57a.065.065 0 0 1-.05-.02.057.057 0 0 1-.02-.05.057.057 0 0 1 .01-.05.065.065 0 0 1 .04-.01h.44zm2.113 1.03a.157.157 0 0 1-.05-.02.048.048 0 0 1-.02-.04.05.05 0 0 1 .01-.04.127.127 0 0 1 .04-.022l.8-.23a.04.04 0 0 1 .04.014.06.06 0 0 1 .01.044.053.053 0 0 1-.02.04.1.1 0 0 1-.04.025l-.15.04v.25l.14.04a.106.106 0 0 1 .04.02.053.053 0 0 1 .02.04.06.06 0 0 1-.02.04.04.04 0 0 1-.04.01zm.22-.062l.32.094v-.187zm.12-.796v-.218a.174.174 0 0 1 0-.053.114.114 0 0 1 .02-.05.1.1 0 0 1 .04-.03.186.186 0 0 1 .06-.01h.25a.21.21 0 0 1 .05 0 .113.113 0 0 1 .04.02.1.1 0 0 1 .03.04.18.18 0 0 1 0 .06v.26a.122.122 0 0 1-.01.03c0 .01-.01.03-.02.04l-.02.04a.4.4 0 0 1-.03.05.045.045 0 0 1-.04.01.06.06 0 0 1-.04-.02.054.054 0 0 1-.02-.04.094.094 0 0 1 .01-.04l.01-.04c.01-.01.01-.02.02-.03a.07.07 0 0 0 .01-.03v-.28h-.29v.35h-.52v-.4a.062.062 0 0 1 .01-.05.056.056 0 0 1 .04-.02.057.057 0 0 1 .04.012.064.064 0 0 1 .02.043v.29zm-17.99.623h-.19a.06.06 0 1 1 0-.12h.21a.08.08 0 0 1 .02.007l.58.227a.217.217 0 0 1 .04.018c.01.006.01.02.01.04a.048.048 0 0 1-.01.038.147.147 0 0 1-.04.023l-.58.227a.08.08 0 0 1-.02.006h-.21a.06.06 0 1 1 0-.12h.19l.45-.18zm.55-.74v-.173a.064.064 0 0 1 .01-.043.068.068 0 0 1 .09 0 .062.062 0 0 1 .01.042v.46a.064.064 0 0 1-.02.04.068.068 0 0 1-.09 0 .062.062 0 0 1-.02-.05v-.17H52v.17a.064.064 0 0 1-.013.04.057.057 0 0 1-.045.01.057.057 0 0 1-.045-.02.064.064 0 0 1-.015-.04v-.46a.062.062 0 0 1 .015-.04.056.056 0 0 1 .045-.02.057.057 0 0 1 .044.01.064.064 0 0 1 .015.04v.17zm-.75-.968a.06.06 0 1 1 0-.12h.86v.158l-.71.31h.65a.06.06 0 1 1 0 .12h-.86v-.158l.72-.31h-.66zM43.4 7.482a.215.215 0 0 1-.285-.213.9.9 0 0 1 .07-.25c.033-.11.07-.14.07-.22s-.034-.11-.14-.11v-.1c.21 0 .28.1.28.21a.9.9 0 0 1-.074.25.55.55 0 0 0-.1.21c0 .03.07.1.18.1zm-2.664 0c-.177 0-.284-.07-.284-.213a.9.9 0 0 1 .07-.25.307.307 0 0 0 .106-.22c0-.07-.035-.11-.142-.11v-.1c.214 0 .285.1.285.21a.9.9 0 0 1-.07.25.55.55 0 0 0-.1.21c0 .03.03.1.14.1v.11zM57.58 6.417c-.176 0-.283-.07-.283-.213a.9.9 0 0 1 .07-.248c.037-.106.073-.142.073-.213s-.035-.106-.142-.106V5.53c.214 0 .285.105.285.212a.9.9 0 0 1-.07.248.307.307 0 0 0-.108.213c0 .07.07.106.172.106zm5.11 0c-.175 0-.282-.07-.282-.213a.9.9 0 0 1 .07-.248c.036-.106.072-.142.072-.213s-.035-.106-.142-.106V5.53c.213 0 .284.105.284.212a.9.9 0 0 1-.07.248.307.307 0 0 0-.108.213c0 .07.07.106.178.106zm-7.537 0c-.18 0-.286-.07-.286-.213a.9.9 0 0 1 .07-.248c.036-.106.072-.142.072-.213s-.04-.106-.15-.106V5.53c.21 0 .28.105.28.212a.9.9 0 0 1-.07.248.307.307 0 0 0-.11.213c0 .07.07.106.18.106zm-9.33 0c-.18 0-.286-.07-.286-.213a.9.9 0 0 1 .07-.248c.036-.106.072-.142.072-.213s-.04-.106-.15-.106V5.53c.21 0 .28.105.28.212a.9.9 0 0 1-.07.248.307.307 0 0 0-.11.213c0 .07.04.106.18.106v.1zm-8.468 42.29v-.175a.063.063 0 0 1 .015-.042.056.056 0 0 1 .045-.017.055.055 0 0 1 .048.017.06.06 0 0 1 .015.042V49a.065.065 0 0 1-.013.043.056.056 0 0 1-.046.017.055.055 0 0 1-.05-.017.062.062 0 0 1-.01-.043v-.174h-.69V49a.065.065 0 0 1-.02.043.068.068 0 0 1-.09 0 .064.064 0 0 1-.02-.043v-.467a.06.06 0 0 1 .01-.042.068.068 0 0 1 .09 0 .063.063 0 0 1 .01.05v.18zm-.47-1.057a.292.292 0 0 1 .133-.03.24.24 0 0 1 .068.01.445.445 0 0 1 .08.03l.216.108a.2.2 0 0 1 .07.06.152.152 0 0 1 0 .17.193.193 0 0 1-.074.06l-.217.11a.566.566 0 0 1-.07.028.224.224 0 0 1-.07.01.3.3 0 0 1-.13-.032l-.23-.12a.2.2 0 0 1-.07-.06.138.138 0 0 1-.02-.083.142.142 0 0 1 .03-.08.2.2 0 0 1 .07-.06zm-.178.224a.184.184 0 0 0-.028.017.038.038 0 0 0 0 .05.18.18 0 0 0 .02.02l.21.11a.272.272 0 0 0 .04.02.155.155 0 0 0 .05.01.172.172 0 0 0 .08-.02l.23-.11a.134.134 0 0 0 .03-.01.03.03 0 0 0 .01-.02.03.03 0 0 0-.01-.02.21.21 0 0 0-.03-.01l-.23-.11a.176.176 0 0 0-.08-.02.15.15 0 0 0-.05.01.354.354 0 0 0-.05.02zm.708-.64a.06.06 0 1 1 0 .12h-.86v-.4a.2.2 0 0 1 .047-.133.156.156 0 0 1 .122-.05h.085a.15.15 0 0 1 .12.06.2.2 0 0 1 .04.13v.11l.38-.26a.308.308 0 0 1 .03-.02.066.066 0 0 1 .03-.01.052.052 0 0 1 .04.02.06.06 0 0 1 .01.05.05.05 0 0 1-.01.03.09.09 0 0 1-.03.02l-.47.33v.03zm-.56 0v-.264a.172.172 0 0 0-.007-.06.038.038 0 0 0-.04-.025h-.084a.042.042 0 0 0-.043.025.14.14 0 0 0-.01.06v.264zm.503-1.262a.065.065 0 0 1 .014-.043.056.056 0 0 1 .043-.02.055.055 0 0 1 .048.01.062.062 0 0 1 .016.04v.53h-.92v-.53a.063.063 0 0 1 .01-.05.067.067 0 0 1 .09 0 .064.064 0 0 1 .01.04v.4h.28v-.17a.065.065 0 0 1 .01-.05.068.068 0 0 1 .09 0 .063.063 0 0 1 .01.04v.18h.28zm-.804-.328v-.527a.06.06 0 0 1 .014-.042.068.068 0 0 1 .09 0 .063.063 0 0 1 .014.042v.408h.182v-.292a.065.065 0 0 1 .01-.043.057.057 0 0 1 .043-.017.058.058 0 0 1 .045.017.064.064 0 0 1 .015.042v.292h.443a.06.06 0 1 1 0 .12zm-2.496 3.183a.158.158 0 0 1-.046-.02.05.05 0 0 1-.015-.04.05.05 0 0 1 .017-.04.12.12 0 0 1 .043-.022l.8-.23a.04.04 0 0 1 .04.014.06.06 0 0 1 .02.04.053.053 0 0 1-.017.04.1.1 0 0 1-.042.02l-.14.04v.25l.145.04a.106.106 0 0 1 .04.02.053.053 0 0 1 .023.03.06.06 0 0 1-.02.04.04.04 0 0 1-.04.01zm.22-.062l.322.1v-.187zm-.163-.678h.045a.06.06 0 1 1 0 .12h-.162v-.587h.162a.06.06 0 1 1 0 .12h-.043v.114h.75a.06.06 0 1 1 0 .12h-.744zm-.057-1.202a.06.06 0 1 1 0-.12h.866v.157l-.71.31h.65a.06.06 0 1 1 0 .12H34V47.2l.72-.31h-.66zm-8.724-22.9a.2.2 0 0 1-.077-.012.165.165 0 0 1-.09-.1.28.28 0 0 1-.01-.07v-.593a.054.054 0 1 1 .108 0v.59a.087.087 0 0 0 .015.06.068.068 0 0 0 .052.015h.18a.07.07 0 0 0 .052-.016.088.088 0 0 0 .017-.06v-.59a.053.053 0 1 1 .11 0v.59a.27.27 0 0 1 0 .07.144.144 0 0 1-.03.05.153.153 0 0 1-.05.04.21.21 0 0 1-.07.01zm1.08-.21a.236.236 0 0 1 .03.045.1.1 0 0 1 .01.045.108.108 0 0 1-.04.09.145.145 0 0 1-.1.03h-.236a.227.227 0 0 1-.06-.006.126.126 0 0 1-.048-.03.15.15 0 0 1-.037-.05.117.117 0 0 1-.013-.06.072.072 0 0 1 .014-.05.05.05 0 0 1 .047-.02.045.045 0 0 1 .04.01.056.056 0 0 1 .02.04c0 .01 0 .02.01.03a.07.07 0 0 0 .04 0h.26c.01 0 .01 0 .01-.02a.028.028 0 0 0 0-.02l-.01-.02-.36-.47a.185.185 0 0 1-.02-.04.112.112 0 0 1-.01-.05.1.1 0 0 1 .04-.09.2.2 0 0 1 .06-.03.248.248 0 0 1 .05 0h.23a.2.2 0 0 1 .06 0 .13.13 0 0 1 .05.03.16.16 0 0 1 .04.05.115.115 0 0 1 .01.05.07.07 0 0 1-.01.05.05.05 0 0 1-.04.02.05.05 0 0 1-.03-.02.048.048 0 0 1-.014-.04.04.04 0 0 0-.01-.04.073.073 0 0 0-.04-.01h-.25a.012.012 0 0 0-.01.013.033.033 0 0 0 .01.014l.01.01zm.28-.62h.3a.216.216 0 0 1 .17.065.267.267 0 0 1 .054.182.263.263 0 0 1-.015.092.186.186 0 0 1-.055.076.2.2 0 0 1 .056.084.353.353 0 0 1 .02.108.213.213 0 0 1-.063.163.232.232 0 0 1-.16.06h-.3zm.104.36h.192a.132.132 0 0 0 .09-.025.112.112 0 0 0 .03-.087.176.176 0 0 0-.024-.106.114.114 0 0 0-.1-.034h-.19zm0 .363h.192a.132.132 0 0 0 .09-.028.11.11 0 0 0 .03-.087.177.177 0 0 0-.024-.106.115.115 0 0 0-.1-.033h-.19zm1.845 0v-.217a.06.06 0 0 1 .013-.03.05.05 0 0 1 .04-.01.052.052 0 0 1 .042.02.058.058 0 0 1 .012.04v.27a.05.05 0 0 1-.015.04.055.055 0 0 1-.036.02h-.42a.056.056 0 0 1-.04-.01.06.06 0 0 1 0-.08.057.057 0 0 1 .04-.01h.15v-.61h-.15a.056.056 0 0 1-.04-.01.05.05 0 0 1-.02-.04.05.05 0 0 1 .01-.04.057.057 0 0 1 .03-.01h.26v.73zm.58-.028a.134.134 0 0 1-.036 0 .042.042 0 0 1-.02-.016.054.054 0 0 1-.01-.024v-.11a.053.053 0 0 1 .033-.043.126.126 0 0 1 .033 0h.08a.134.134 0 0 1 .03 0 .04.04 0 0 1 .02.015.055.055 0 0 1 .016.024v.104a.048.048 0 0 1-.01.026.045.045 0 0 1-.03.017.123.123 0 0 1-.03 0zm.75-.333h.2a.165.165 0 0 1 .044.006.106.106 0 0 1 .038.025.1.1 0 0 1 .028.038.173.173 0 0 1 .004.052v.228a.188.188 0 0 1 0 .046.1.1 0 0 1-.02.038.087.087 0 0 1-.04.027.157.157 0 0 1-.053.008h-.235a.11.11 0 0 1-.04 0l-.04-.014-.04-.01a.29.29 0 0 1-.05-.02.04.04 0 0 1-.02-.03.053.053 0 0 1 .01-.03.048.048 0 0 1 .04-.01.088.088 0 0 1 .03.01l.03.02.03.02a.06.06 0 0 0 .03.01h.24v-.25h-.31v-.47h.36a.056.056 0 0 1 .04.01.06.06 0 0 1 0 .08.057.057 0 0 1-.04.01h-.26zm.76-.307a.128.128 0 0 1 .02-.04.043.043 0 0 1 .034-.013.044.044 0 0 1 .036.014.105.105 0 0 1 .02.05l.205.72a.036.036 0 0 1-.012.04.054.054 0 0 1-.04.02.048.048 0 0 1-.037-.01.09.09 0 0 1-.02-.03l-.04-.13h-.23l-.04.13a.093.093 0 0 1-.02.04.047.047 0 0 1-.04.02.053.053 0 0 1-.04-.01.036.036 0 0 1-.01-.04zm.056.2l-.09.29h.17zm-5.15 1.644a.236.236 0 0 1 .03.044.1.1 0 0 1 .01.045.108.108 0 0 1-.04.09.145.145 0 0 1-.1.03h-.23a.227.227 0 0 1-.06-.006.126.126 0 0 1-.05-.027.15.15 0 0 1-.04-.045.117.117 0 0 1-.02-.054.072.072 0 0 1 .01-.04.05.05 0 0 1 .04-.02.045.045 0 0 1 .03.02.056.056 0 0 1 .01.04c0 .02 0 .03.01.03a.07.07 0 0 0 .03.01h.25c.01 0 .01 0 .01-.01a.028.028 0 0 0-.01-.01l-.02-.01-.37-.47a.185.185 0 0 1-.028-.04.112.112 0 0 1-.01-.04.1.1 0 0 1 .035-.09.2.2 0 0 1 .06-.03.248.248 0 0 1 .05 0h.223a.2.2 0 0 1 .06.01.13.13 0 0 1 .05.03.16.16 0 0 1 .036.05.115.115 0 0 1 .02.06.07.07 0 0 1-.02.05.05.05 0 0 1-.04.02.05.05 0 0 1-.04-.01.048.048 0 0 1-.018-.03.04.04 0 0 0-.01-.03.073.073 0 0 0-.04-.01h-.25a.012.012 0 0 0-.01.01.033.033 0 0 0 .01.02l.01.01zm.38-.154v.307a.054.054 0 1 1-.11 0v-.722a.054.054 0 1 1 .11 0v.307h.31v-.307a.053.053 0 1 1 .1 0v.722a.053.053 0 1 1-.11 0V24.9zm1.16-.167a.267.267 0 0 1 .02.118.215.215 0 0 1-.01.07.4.4 0 0 1-.03.07l-.1.2a.18.18 0 0 1-.05.07.126.126 0 0 1-.08.03.128.128 0 0 1-.08-.02.174.174 0 0 1-.06-.06l-.1-.2a.513.513 0 0 1-.03-.06.212.212 0 0 1-.01-.06.265.265 0 0 1 .03-.12l.1-.21a.182.182 0 0 1 .05-.06.124.124 0 0 1 .07-.03.125.125 0 0 1 .07.03.176.176 0 0 1 .05.07zm-.2-.16a.167.167 0 0 0-.02-.025.025.025 0 0 0-.02-.007.026.026 0 0 0-.02.01.17.17 0 0 0-.02.03l-.1.2a.256.256 0 0 0-.02.05.134.134 0 0 0-.01.05.155.155 0 0 0 .02.07l.1.2a.112.112 0 0 0 .01.03.026.026 0 0 0 .02.01.027.027 0 0 0 .02-.01.17.17 0 0 0 .01-.02l.1-.2a.157.157 0 0 0 .01-.07.135.135 0 0 0 0-.04.29.29 0 0 0-.02-.04zm.57.637a.054.054 0 1 1-.11 0v-.776h.36a.176.176 0 0 1 .11.043.14.14 0 0 1 .05.11v.074a.135.135 0 0 1-.05.12.18.18 0 0 1-.12.04h-.1l.24.35a.276.276 0 0 1 .01.03.06.06 0 0 1 .01.03.046.046 0 0 1-.02.04.054.054 0 0 1-.04.02.044.044 0 0 1-.03 0 .084.084 0 0 1-.02-.02l-.3-.42h-.03zm0-.5h.23a.156.156 0 0 0 .05-.01.035.035 0 0 0 .02-.035v-.073a.038.038 0 0 0-.02-.038.13.13 0 0 0-.06-.01h-.24zm.76-.17v.038a.054.054 0 0 1-.11 0v-.145h.53v.145a.053.053 0 0 1-.11 0v-.038h-.1v.67a.053.053 0 1 1-.11 0v-.67zm39.24-8.385a.267.267 0 0 1 .02.118.21.21 0 0 1 0 .06.4.4 0 0 1-.03.067l-.1.2a.178.178 0 0 1-.06.064.125.125 0 0 1-.08.025.13.13 0 0 1-.08-.03.176.176 0 0 1-.05-.07l-.1-.2a.517.517 0 0 1-.03-.07.212.212 0 0 1-.01-.06.263.263 0 0 1 .03-.12l.1-.21a.18.18 0 0 1 .05-.07.124.124 0 0 1 .07-.03.126.126 0 0 1 .08.02.177.177 0 0 1 .05.06zm-.2-.16a.167.167 0 0 0-.02-.025.025.025 0 0 0-.02-.007.026.026 0 0 0-.02.007.167.167 0 0 0-.02.025l-.1.193a.254.254 0 0 0-.02.043.134.134 0 0 0-.01.05.155.155 0 0 0 .02.07l.1.2a.13.13 0 0 0 .01.03.027.027 0 0 0 .02.01.027.027 0 0 0 .02-.01.16.16 0 0 0 .01-.02l.1-.2a.155.155 0 0 0 .02-.07.14.14 0 0 0-.01-.04.292.292 0 0 0-.02-.04zm.88-.085a.053.053 0 1 1 .1 0v.774h-.14l-.28-.64v.586a.053.053 0 1 1-.11 0v-.775h.14l.28.646zm3.57 5.282h.15a.055.055 0 0 1 .04.013.06.06 0 0 1 0 .08.057.057 0 0 1-.04.013h-.42a.056.056 0 0 1-.04-.013.05.05 0 0 1-.02-.04.05.05 0 0 1 .01-.04.057.057 0 0 1 .04-.014h.15v-.61h-.16a.056.056 0 0 1-.04-.01.05.05 0 0 1-.02-.04.05.05 0 0 1 .01-.04.057.057 0 0 1 .04-.01h.42a.055.055 0 0 1 .04.02.06.06 0 0 1 0 .08.057.057 0 0 1-.04.02h-.15zm.73.108a.174.174 0 0 1-.1-.024.19.19 0 0 1-.07-.077l-.1-.2a.294.294 0 0 1-.02-.06.22.22 0 0 1 0-.06.265.265 0 0 1 .03-.12l.1-.2a.156.156 0 0 1 .16-.1h.18a.06.06 0 0 1 .04.01.05.05 0 0 1 .01.04.048.048 0 0 1-.01.04.058.058 0 0 1-.04.01h-.18a.1.1 0 0 0-.05 0 .1.1 0 0 0-.03.03l-.09.18a.24.24 0 0 0-.02.04.147.147 0 0 0 0 .07.26.26 0 0 0 .02.04l.09.18a.086.086 0 0 0 .03.04.117.117 0 0 0 .05.01h.172a.06.06 0 0 1 .04.01.06.06 0 0 1 0 .08.058.058 0 0 1-.038.01zm.97-.21a.248.248 0 0 1 .03.044.106.106 0 0 1 .01.045.108.108 0 0 1-.04.08.145.145 0 0 1-.1.03h-.23a.225.225 0 0 1-.06-.01.125.125 0 0 1-.05-.03.146.146 0 0 1-.04-.05.115.115 0 0 1-.02-.06.07.07 0 0 1 .01-.05.05.05 0 0 1 .04-.02.046.046 0 0 1 .03.01.057.057 0 0 1 .01.03.033.033 0 0 0 .01.03.072.072 0 0 0 .03 0h.25c.01 0 .01 0 .01-.02a.03.03 0 0 0-.01-.02l-.01-.02-.37-.47a.193.193 0 0 1-.03-.04.115.115 0 0 1-.01-.05.1.1 0 0 1 .034-.09.2.2 0 0 1 .056-.03.25.25 0 0 1 .056 0h.236a.2.2 0 0 1 .06.002.13.13 0 0 1 .05.03.154.154 0 0 1 .04.05.115.115 0 0 1 .01.05.068.068 0 0 1-.016.05.05.05 0 0 1-.046.02.05.05 0 0 1-.036-.014.048.048 0 0 1-.01-.04.04.04 0 0 0-.012-.037.074.074 0 0 0-.04-.01h-.25a.012.012 0 0 0-.01.01.03.03 0 0 0 .01.02l.01.02zm.38.155a.054.054 0 0 1-.11 0v-.775h.36a.215.215 0 0 1 .07.01.157.157 0 0 1 .05.035.134.134 0 0 1 .04.06.27.27 0 0 1 .01.08v.145a.3.3 0 0 1-.01.077.15.15 0 0 1-.04.06.13.13 0 0 1-.06.042.292.292 0 0 1-.09.01h-.23zm0-.366h.23a.06.06 0 0 0 .07-.08v-.15a.06.06 0 0 0-.08-.08h-.23z"/>
    <path fill="#333" d="M21.12 18.173h1.348v1.35h-1.35zm9.973-5.147h2.236v3.3h-2.24zM25.52 26.94h7.81v7.595h-7.81zm1.456 10.22h3.3v3.337h-3.3zm5.714 2.486h3.3v4.827h-3.3zm10.47-2.662h5.928v5.82H43.16zm11.89 1.42h6.85v5.36h-6.85zm7.56-6.247h2.344v2.13H62.61zM43.55 21.26h11.11v8.554H43.55zm-5.11-11.038h6.957v5.253H38.44zm16.86 0h6.956v5.253H55.3zM23.462 42.84h4.827v3.372h-4.83z"/>
    <path fill="none" stroke="#fff" stroke-width=".5" d="M34.713 8.02h37.41M56.116 45.005h14.836m-29.956 0H53.81"/>
    <path fill="#fff" d="M69.785 4.535a.132.132 0 0 1 .133-.135h.77a.13.13 0 0 1 .132.133v.39a.132.132 0 0 1-.133.134h-.77a.132.132 0 0 1-.132-.133zm.9 0h-.767v.39h.77zm-2.552 0h-.27a.073.073 0 0 1-.05-.015.083.083 0 0 1 0-.1.072.072 0 0 1 .05-.015h.337a.063.063 0 0 1 .05.02.07.07 0 0 1 .017.046V5a.07.07 0 0 1-.016.048.063.063 0 0 1-.05.02.062.062 0 0 1-.05-.02.07.07 0 0 1-.01-.048v-.2h-.77V5a.07.07 0 0 1-.01.048.076.076 0 0 1-.1 0A.07.07 0 0 1 67.23 5v-.336h.9zm-.77 2.878h.048a.067.067 0 1 1 0 .133h-.18V6.89h.18a.067.067 0 1 1 0 .132h-.04v.13h.84a.067.067 0 1 1 0 .132h-.83zm.387-1.078l-.41.237-.022.01a.067.067 0 0 1-.027 0 .058.058 0 0 1-.04-.02.065.065 0 0 1-.02-.045.058.058 0 0 1 .02-.043.3.3 0 0 1 .05-.035l.32-.19-.32-.19-.04-.03a.058.058 0 0 1-.03-.03.065.065 0 0 1 .02-.05.058.058 0 0 1 .05-.02.072.072 0 0 1 .03 0l.03.01.41.23.4-.24.02-.01a.068.068 0 0 1 .03 0 .06.06 0 0 1 .04.02.065.065 0 0 1 .02.04.056.056 0 0 1-.01.04.28.28 0 0 1-.05.03l-.32.18.32.18.03.02a.066.066 0 0 1 .03.05.064.064 0 0 1-.02.04.058.058 0 0 1-.04.02.07.07 0 0 1-.02 0l-.02-.02zm3.005 1.078a.067.067 0 1 1 0 .133h-.97V7.1a.22.22 0 0 1 .055-.147.174.174 0 0 1 .14-.063h.09a.17.17 0 0 1 .14.062.227.227 0 0 1 .05.147v.12l.43-.3a.316.316 0 0 1 .035-.03.076.076 0 0 1 .035-.01.06.06 0 0 1 .045.02.068.068 0 0 1 .018.05.055.055 0 0 1-.01.03.1.1 0 0 1-.027.02l-.524.36v.03zm-.628 0v-.3a.194.194 0 0 0-.01-.063.044.044 0 0 0-.044-.028h-.095a.047.047 0 0 0-.047.028.162.162 0 0 0-.01.067v.3zm.178-1.078l-.41.237-.02.01a.067.067 0 0 1-.026 0 .058.058 0 0 1-.05-.02.065.065 0 0 1-.02-.045.058.058 0 0 1 .01-.043.3.3 0 0 1 .05-.035l.32-.19-.32-.19-.04-.03a.058.058 0 0 1-.02-.03.065.065 0 0 1 .02-.05.058.058 0 0 1 .04-.02.072.072 0 0 1 .02 0l.02.01.4.23.4-.23.02-.01a.068.068 0 0 1 .02 0 .06.06 0 0 1 .04.02.065.065 0 0 1 .01.04.056.056 0 0 1-.02.04.28.28 0 0 1-.05.03l-.32.18.32.18.03.02a.066.066 0 0 1 .03.06.064.064 0 0 1-.02.04.058.058 0 0 1-.05.02.07.07 0 0 1-.03 0l-.02-.02zm-2.37-.692h-.355c-.035 0-.035 0-.035-.035v-.072l.177-.248a.067.067 0 0 1 .106 0l.177.248.035.035c-.034.04-.07.08-.105.08zm2.235-.39h.356c.035 0 .035 0 .07.035v.07l-.176.25a.067.067 0 0 1-.106 0l-.177-.25-.035-.034a.076.076 0 0 1 .07-.07zm-6.387 4.01a.253.253 0 0 1 .248-.284 1.6 1.6 0 0 1 .29.07.9.9 0 0 0 .25.07c.07 0 .11-.07.11-.18h.11c0 .21-.1.28-.21.28a1.6 1.6 0 0 1-.28-.07.9.9 0 0 0-.24-.07c-.07 0-.1.03-.1.17z"/>
    <path fill="none" d="M33.653 16.586h-2.555"/>
    <path fill="#f2f2f2" d="M31.058 16.61h2.59v1.35h-2.59z"/>
    <path fill="#22b573" fill-opacity=".7" d="M31.985 16.585s-.213.177-.32.142c-.07 0-.176.035-.247 0v-.142z"/>
    <path fill="#fff" d="M32.194 17.093h.32v.355h-.32z"/>
    <path fill="#b3b3b3" d="M32.52 17.135h-.32.32z"/>
    <path fill="#d1c690" d="M31.772 16.728l-.355-.036v.284l.355-.035v-.21z"/>
    <path fill="#d1c690" d="M31.737 16.8a.3.3 0 0 1 .213.07c.07.036.213.285.284.25h.035v.034c-.11.035-.25-.213-.32-.248-.04-.035-.11-.035-.22-.07V16.8zm1.243.957l.354.035v-.248l-.355.035v.17z"/>
    <path fill="#d1c690" d="M32.376 17.224a.976.976 0 0 0 .674.426.036.036 0 0 1 0 .07c-.248-.034-.64-.283-.674-.5zm-.142 0s.142 0 .142-.106h-.142z"/>
    <path fill="#d1c690" d="M32.376 17.33s-.07-.105-.035-.14c.04 0 .08-.036.08 0 .07.07-.03.14-.03.14z"/>
    <path fill="#9d956c" d="M32.27 17.082c-.107.035-.214-.213-.285-.248-.035-.035-.106-.035-.213-.07v.036a.38.38 0 0 1 .213.07c.035.036.177.285.284.214zm.71.462l.354-.036v.036l-.355.035v-.04z"/>
    <path fill="#9d956c" d="M32.41 17.224a.85.85 0 0 0 .675.39v.035a.815.815 0 0 1-.674-.43zm-.034-.142h-.142v.035s.106 0 .142-.035zm.07.108c-.034-.036-.034-.036-.07 0v.034c.035-.035.035-.035.07-.035z"/>
    <path fill="#fff" d="M31.652 17.927h1.49v.035h-1.49z" opacity=".5" style="isolation:isolate"/>
    <path fill="#f2f2f2" d="M33.3 17.934v-1.35h-1.882v1.35z" opacity=".5" style="isolation:isolate"/>
    <path fill="#fff" d="M33.3 17.72v.107c0 .07 0 .106-.036.106h-1.74c-.07 0-.07-.035 0-.035h1.526c.177 0 .177-.035.177-.07l.07-.107c-.034-.07.002-.07.002 0z" opacity=".55" style="isolation:isolate"/>
    <path d="M31.49 16.656c0-.035 0-.035.034-.035h1.7c.07 0 .07.04 0 .04H31.49z" opacity=".03" style="isolation:isolate"/>
    <path fill="#d1c690" d="M33.654 16.585h-.284v.177c0 .035-.035.07-.07.106v1.065h.354v-1.348"/>
    <path fill="#fff" d="M33.334 17.914h.355v.035h-.36z" opacity=".5" style="isolation:isolate"/>
    <path fill="#d1c690" d="M31.063 16.585v1.35h.39V16.69c-.035-.035-.07-.035-.07-.106v-.036l-.32.035"/>
    <path fill="#fff" d="M31.042 17.9h.39v.034h-.39z" opacity=".5" style="isolation:isolate"/>
    <path fill="none" d="M33.653 18.218h-2.555"/>
    <path fill="#f2f2f2" d="M31.058 18.243h2.59v1.35h-2.59z"/>
    <path fill="#22b573" fill-opacity=".7" d="M31.985 18.218s-.213.177-.32.142c-.07 0-.176.035-.247 0v-.142z"/>
    <path fill="#fff" d="M32.194 18.726h.32v.355h-.32z"/>
    <path fill="#b3b3b3" d="M32.52 18.768h-.32.32z"/>
    <path fill="#d1c690" d="M31.772 18.396l-.355-.036v.25l.355-.037v-.177z"/>
    <path fill="#d1c690" d="M31.737 18.466a.3.3 0 0 1 .213.07c.07.036.213.285.284.25h.035v.034c-.11.035-.25-.213-.32-.248-.04-.035-.11-.035-.22-.07v-.036zm1.243.924l.354.035v-.248l-.355.035v.178z"/>
    <path fill="#d1c690" d="M32.376 18.857a.976.976 0 0 0 .674.426.036.036 0 0 1 0 .07c-.248-.034-.64-.283-.674-.5zm-.142 0s.142 0 .142-.106h-.142z"/>
    <path fill="#9d956c" d="M32.27 18.75c-.107.035-.214-.213-.285-.248-.035-.035-.106-.035-.213-.07v.034a.38.38 0 0 1 .213.07c.035 0 .177.25.284.214zm.71.462l.354-.035-.355.035z"/>
    <path fill="#9d956c" d="M32.41 18.857a.85.85 0 0 0 .675.39v.035a.748.748 0 0 1-.674-.426zm-.034-.142h-.142v.035s.106 0 .142-.035z"/>
    <path fill="#9d956c" d="M32.447 18.857c-.035-.035-.035-.035-.07-.035v.035c.034-.035.034-.035.07 0z"/>
    <path fill="#fff" d="M31.652 19.56h1.49v.034h-1.49z" opacity=".5" style="isolation:isolate"/>
    <path fill="#f2f2f2" d="M33.3 19.6v-1.347h-1.882V19.6z" opacity=".5" style="isolation:isolate"/>
    <path fill="#fff" d="M33.3 19.354v.106c0 .07 0 .106-.036.106h-1.74c-.07 0-.07-.035 0-.035h1.526c.177 0 .177-.03.177-.07l.07-.1c-.034-.07.002-.07.002 0z" opacity=".55" style="isolation:isolate"/>
    <path d="M31.49 18.324c0-.035 0-.035.034-.035h1.7c.07 0 .07.03 0 .03H31.95a1.768 1.768 0 0 0-.46 0z" opacity=".03" style="isolation:isolate"/>
    <path fill="#d1c690" d="M33.654 18.218h-.284v.182c0 .035-.035.07-.07.106v1.065h.354v-1.35"/>
    <path fill="#fff" d="M33.334 19.547h.355v.035h-.36z" opacity=".5" style="isolation:isolate"/>
    <path fill="#d1c690" d="M31.063 18.218v1.35h.39v-1.244c-.035-.035-.07-.035-.07-.106v-.035l-.32.035"/>
    <path fill="#fff" d="M31.042 19.567h.39v.035h-.39z" opacity=".5" style="isolation:isolate"/>
    <path fill="#fff" d="M7.625 5.51a.054.054 0 1 1 0 .106H6.85v-.358a.176.176 0 0 1 .043-.118.14.14 0 0 1 .11-.05h.074a.135.135 0 0 1 .11.05.18.18 0 0 1 .042.118v.1l.34-.24.03-.018a.06.06 0 0 1 .02-.008.046.046 0 0 1 .03.015.054.054 0 0 1 .01.04.044.044 0 0 1-.01.025.084.084 0 0 1-.02.02l-.42.295v.024zm-.5 0v-.24a.156.156 0 0 0-.007-.054.035.035 0 0 0-.04-.018h-.074a.038.038 0 0 0-.038.022.13.13 0 0 0-.01.053v.237zm.447-1.134a.056.056 0 0 1 .013-.038.05.05 0 0 1 .04-.015.05.05 0 0 1 .04.015.057.057 0 0 1 .013.038v.473H6.85v-.48a.056.056 0 0 1 .013-.04.05.05 0 0 1 .04-.02.05.05 0 0 1 .04.01.057.057 0 0 1 .014.04v.36h.254v-.15a.058.058 0 0 1 .02-.04.05.05 0 0 1 .04-.02.05.05 0 0 1 .04.01.055.055 0 0 1 .02.03v.16h.26zm-.102-.783a.236.236 0 0 1 .048-.028.1.1 0 0 1 .045-.01.108.108 0 0 1 .09.04.145.145 0 0 1 .03.1v.233a.227.227 0 0 1-.006.06.126.126 0 0 1-.027.048.15.15 0 0 1-.045.037.117.117 0 0 1-.054.013.072.072 0 0 1-.04-.014.05.05 0 0 1-.02-.042.045.045 0 0 1 .02-.036.056.056 0 0 1 .04-.014c.02 0 .03 0 .03-.01a.07.07 0 0 0 .01-.037v-.258c0-.008 0-.013-.01-.013a.028.028 0 0 0-.01.007l-.01.01-.47.36a.185.185 0 0 1-.04.03.112.112 0 0 1-.04.01.1.1 0 0 1-.09-.04.2.2 0 0 1-.02-.06.248.248 0 0 1 0-.06V3.7a.2.2 0 0 1 0-.06.13.13 0 0 1 .02-.04.16.16 0 0 1 .05-.036A.115.115 0 0 1 7 3.55a.07.07 0 0 1 .045.01.05.05 0 0 1 .018.042.05.05 0 0 1-.01.036.048.048 0 0 1-.036.013.04.04 0 0 0-.034.01.073.073 0 0 0-.01.04v.25a.012.012 0 0 0 .012.01.033.033 0 0 0 .015 0zm.102-.75a.056.056 0 0 1 .013-.043.05.05 0 0 1 .04-.015.05.05 0 0 1 .04.015.057.057 0 0 1 .013.038v.473H6.85v-.46a.056.056 0 0 1 .013-.04.05.05 0 0 1 .04-.01.05.05 0 0 1 .04.02.057.057 0 0 1 .014.04v.37h.254v-.16a.058.058 0 0 1 .02-.04.05.05 0 0 1 .04-.01.05.05 0 0 1 .04.02.055.055 0 0 1 .02.04v.16h.26zm-.616-.4h.04a.054.054 0 0 1 0 .106H6.85v-.53h.145a.053.053 0 0 1 0 .1h-.04v.1h.67a.053.053 0 1 1 0 .1h-.67zM6.85 34.88v-.133h.775a.053.053 0 1 1 0 .106h-.627l.15.1h.016a.083.083 0 0 1 .046.012.055.055 0 0 1 0 .08.075.075 0 0 1-.045.015h-.018l-.15.1h.63a.053.053 0 1 1 0 .106H6.85v-.126l.188-.13zm.054-.58a.136.136 0 0 1-.04-.02.054.054 0 0 1 0-.07.1.1 0 0 1 .04-.02l.72-.204a.035.035 0 0 1 .037.01.054.054 0 0 1 .02.04.047.047 0 0 1-.01.037.087.087 0 0 1-.04.02l-.13.04v.228l.13.05a.09.09 0 0 1 .04.02.047.047 0 0 1 .02.04.053.053 0 0 1-.01.04.036.036 0 0 1-.03.01zm.2-.056l.288.086v-.17zm.366-.994a.23.23 0 0 1 .043-.027.1.1 0 0 1 .045-.01.108.108 0 0 1 .09.04.145.145 0 0 1 .03.1v.233a.228.228 0 0 1-.006.06.125.125 0 0 1-.027.048.146.146 0 0 1-.045.037.12.12 0 0 1-.054.02.07.07 0 0 1-.046-.01.05.05 0 0 1-.018-.04.045.045 0 0 1 .016-.03.057.057 0 0 1 .038-.01.033.033 0 0 0 .03-.01.072.072 0 0 0 .006-.03v-.25c0-.01 0-.01-.012-.01a.03.03 0 0 0-.015.01l-.017.01-.47.36a.178.178 0 0 1-.042.03.11.11 0 0 1-.045.01.1.1 0 0 1-.08-.03.208.208 0 0 1-.03-.05.25.25 0 0 1 0-.05v-.23a.2.2 0 0 1 .01-.05.13.13 0 0 1 .03-.05.154.154 0 0 1 .05-.03.115.115 0 0 1 .05-.02.068.068 0 0 1 .05.02.05.05 0 0 1 .02.04.05.05 0 0 1-.01.04.048.048 0 0 1-.03.01.04.04 0 0 0-.03.01.074.074 0 0 0-.01.04v.25a.012.012 0 0 0 .02.01.03.03 0 0 0 .02-.01l.01-.01zm-.514-.384h.04a.054.054 0 0 1 0 .107H6.85v-.526h.145a.053.053 0 0 1 0 .106h-.04v.1h.67a.053.053 0 1 1 0 .106h-.67zm.616-1.133a.055.055 0 0 1 .013-.038.048.048 0 0 1 .04-.015.05.05 0 0 1 .04.016.056.056 0 0 1 .013.038v.473H6.85v-.473a.055.055 0 0 1 .013-.034.05.05 0 0 1 .04-.015.05.05 0 0 1 .04.016.056.056 0 0 1 .014.04v.36h.254v-.15a.06.06 0 0 1 .02-.04.052.052 0 0 1 .04-.01.05.05 0 0 1 .04.02.056.056 0 0 1 .02.05v.16h.26zm.053-.4a.054.054 0 0 1 0 .107H6.85v-.358a.176.176 0 0 1 .043-.118.14.14 0 0 1 .11-.05h.074a.135.135 0 0 1 .11.05.182.182 0 0 1 .042.117v.1l.34-.23.03-.02a.06.06 0 0 1 .02-.01.046.046 0 0 1 .03.02.054.054 0 0 1 .01.04.044.044 0 0 1-.01.03.08.08 0 0 1-.02.02l-.42.3v.03zm-.5 0V31.1a.156.156 0 0 0-.007-.058.035.035 0 0 0-.036-.022h-.078a.038.038 0 0 0-.038.022.13.13 0 0 0-.01.053v.237zm.5-1.533a.053.053 0 1 1 0 .106H6.85v-.358a.177.177 0 0 1 .043-.118.14.14 0 0 1 .11-.05h.074a.136.136 0 0 1 .11.05.182.182 0 0 1 .042.118v.1l.34-.24.03-.017a.06.06 0 0 1 .02 0 .046.046 0 0 1 .03.02.053.053 0 0 1 .01.04.043.043 0 0 1-.01.03.08.08 0 0 1-.02.02l-.42.3v.02zm-.5 0v-.236a.16.16 0 0 0-.007-.055.035.035 0 0 0-.036-.03h-.078a.038.038 0 0 0-.038.02.132.132 0 0 0-.01.05v.23zm.447-1.133a.056.056 0 0 1 .013-.038.05.05 0 0 1 .04-.02.05.05 0 0 1 .04.01.056.056 0 0 1 .013.03v.47H6.85v-.48a.056.056 0 0 1 .013-.04.05.05 0 0 1 .04-.02.05.05 0 0 1 .04.01.056.056 0 0 1 .014.04V29h.254v-.156a.058.058 0 0 1 .02-.04.06.06 0 0 1 .08 0 .056.056 0 0 1 .02.037V29h.26zm-.102-.783a.226.226 0 0 1 .043-.028.1.1 0 0 1 .045-.01.11.11 0 0 1 .09.038.145.145 0 0 1 .03.1v.234a.225.225 0 0 1-.006.06.123.123 0 0 1-.027.048.14.14 0 0 1-.045.037.115.115 0 0 1-.054.014.073.073 0 0 1-.046-.014.05.05 0 0 1-.018-.042.045.045 0 0 1 .016-.03.055.055 0 0 1 .038-.01c.015 0 .025 0 .03-.01a.07.07 0 0 0 .006-.03v-.25c0-.01 0-.01-.012-.01a.03.03 0 0 0-.015.01l-.017.01-.47.37a.17.17 0 0 1-.042.03.115.115 0 0 1-.045.01.1.1 0 0 1-.08-.03.2.2 0 0 1-.03-.05.25.25 0 0 1 0-.05V28a.2.2 0 0 1 .01-.058.13.13 0 0 1 .03-.042.16.16 0 0 1 .05-.036.115.115 0 0 1 .05-.014.068.068 0 0 1 .05.014.05.05 0 0 1 .02.036.05.05 0 0 1-.01.037.048.048 0 0 1-.04.014.04.04 0 0 0-.03.02.074.074 0 0 0-.01.04v.25a.012.012 0 0 0 .02.02.035.035 0 0 0 .02-.01v-.02zm.102-.75a.056.056 0 0 1 .013-.038.05.05 0 0 1 .04-.015.05.05 0 0 1 .04.02.057.057 0 0 1 .013.04v.48H6.85v-.47a.056.056 0 0 1 .013-.03.05.05 0 0 1 .04-.01.05.05 0 0 1 .04.02.057.057 0 0 1 .014.04v.36h.254v-.15a.057.057 0 0 1 .02-.04.06.06 0 0 1 .08 0 .055.055 0 0 1 .02.04v.16h.26zm-.616-.4h.04a.054.054 0 0 1 0 .106H6.85v-.526h.145a.053.053 0 0 1 0 .106h-.04v.1h.67a.053.053 0 1 1 0 .106h-.67zm16.482 24.9a.163.163 0 0 1 .025-.054.055.055 0 0 1 .046-.018.06.06 0 0 1 .04.018.136.136 0 0 1 .02.053l.27.942a.047.047 0 0 1-.02.047.07.07 0 0 1-.05.022.062.062 0 0 1-.05-.02.12.12 0 0 1-.03-.05l-.06-.167h-.3l-.05.167a.12.12 0 0 1-.03.05.062.062 0 0 1-.05.02.07.07 0 0 1-.05-.022.047.047 0 0 1-.02-.047zm.073.26l-.11.375h.22zm.8.68a.07.07 0 1 1-.14 0v-1.012h.47a.23.23 0 0 1 .16.056.182.182 0 0 1 .07.146v.1a.176.176 0 0 1-.06.145.237.237 0 0 1-.15.05h-.13l.31.45a.335.335 0 0 1 .03.03.08.08 0 0 1 .01.03.062.062 0 0 1-.02.04.072.072 0 0 1-.05.02.057.057 0 0 1-.03-.01.12.12 0 0 1-.03-.03l-.38-.55h-.03zm0-.656h.31a.2.2 0 0 0 .07-.01.045.045 0 0 0 .03-.048v-.1a.05.05 0 0 0-.03-.05.17.17 0 0 0-.07-.01h-.31zm1-.218h-.05a.11.11 0 0 1-.06-.015.073.073 0 0 1 0-.106.092.092 0 0 1 .06-.02h.24a.22.22 0 0 1 .13.03.275.275 0 0 1 .09.1l.12.24a.49.49 0 0 1 .03.08.3.3 0 0 1 .01.08.285.285 0 0 1-.01.07.444.444 0 0 1-.03.07l-.12.25a.237.237 0 0 1-.08.1.265.265 0 0 1-.13.03h-.23a.074.074 0 0 1-.05-.02.066.066 0 0 1-.02-.06.064.064 0 0 1 .02-.05.072.072 0 0 1 .05-.02h.07zm.14.8h.03a.144.144 0 0 0 .07-.01.11.11 0 0 0 .04-.05l.12-.246a.49.49 0 0 0 .02-.05.135.135 0 0 0 .01-.04.158.158 0 0 0-.01-.07L25.68 52l-.114-.235a.112.112 0 0 0-.037-.05.188.188 0 0 0-.07-.01h-.02zm.95.145a.274.274 0 0 1-.1-.015.2.2 0 0 1-.07-.053.185.185 0 0 1-.04-.077.35.35 0 0 1-.01-.092v-.776a.07.07 0 1 1 .14 0v.776a.115.115 0 0 0 .02.077.09.09 0 0 0 .07.02h.24a.09.09 0 0 0 .07-.02.116.116 0 0 0 .02-.077v-.776a.07.07 0 1 1 .14 0v.776a.363.363 0 0 1-.01.093.188.188 0 0 1-.04.08.2.2 0 0 1-.07.06.265.265 0 0 1-.1.02zm1.19-.14h.2a.075.075 0 0 1 .05.018.08.08 0 0 1 0 .105.074.074 0 0 1-.05.017h-.54a.074.074 0 0 1-.05-.017.066.066 0 0 1-.02-.053.064.064 0 0 1 .02-.052.072.072 0 0 1 .05-.017h.2v-.8h-.2a.074.074 0 0 1-.05-.017.066.066 0 0 1-.02-.06.064.064 0 0 1 .02-.05.072.072 0 0 1 .05-.02h.55a.073.073 0 0 1 .05.01.08.08 0 0 1 0 .1.074.074 0 0 1-.05.01h-.2zm1.13-.873a.07.07 0 1 1 .14 0v1.013h-.18l-.36-.835v.765a.07.07 0 1 1-.14 0v-1.013h.19l.37.845zm1.11.32a.345.345 0 0 1 .04.155.284.284 0 0 1-.01.08.526.526 0 0 1-.03.086l-.13.256a.24.24 0 0 1-.07.08.165.165 0 0 1-.1.03.17.17 0 0 1-.1-.03.23.23 0 0 1-.07-.09l-.12-.26a.63.63 0 0 1-.03-.09.276.276 0 0 1-.01-.08.345.345 0 0 1 .04-.16l.14-.28a.24.24 0 0 1 .07-.08.162.162 0 0 1 .1-.03.165.165 0 0 1 .1.03.228.228 0 0 1 .07.08zm-.26-.21a.224.224 0 0 0-.02-.032.044.044 0 0 0-.05 0 .212.212 0 0 0-.02.033l-.13.257a.338.338 0 0 0-.02.056.184.184 0 0 0-.01.056.2.2 0 0 0 .03.092l.14.264a.137.137 0 0 0 .02.03.035.035 0 0 0 .03.012.033.033 0 0 0 .03-.01.178.178 0 0 0 .02-.032l.14-.264a.2.2 0 0 0 .03-.092.173.173 0 0 0-.01-.055.37.37 0 0 0-.03-.057zm.91.726a.17.17 0 0 1-.04 0 .052.052 0 0 1-.02-.02.07.07 0 0 1-.01-.03.2.2 0 0 1 0-.035v-.107a.06.06 0 0 1 .02-.034.06.06 0 0 1 .03-.023.165.165 0 0 1 .04 0h.1a.172.172 0 0 1 .05 0 .054.054 0 0 1 .03.02.072.072 0 0 1 .02.03.215.215 0 0 1 0 .03v.1a.06.06 0 0 1-.01.03.057.057 0 0 1-.03.02.165.165 0 0 1-.04 0zm1.09.177a.228.228 0 0 1-.12-.03.25.25 0 0 1-.08-.1l-.12-.26a.386.386 0 0 1-.03-.072.28.28 0 0 1-.01-.074.342.342 0 0 1 .04-.16l.13-.26a.206.206 0 0 1 .22-.14h.24a.078.078 0 0 1 .04.01.063.063 0 0 1 .02.05.064.064 0 0 1-.02.05.075.075 0 0 1-.05.01h-.23a.133.133 0 0 0-.06.01.138.138 0 0 0-.03.05l-.12.24a.36.36 0 0 0-.02.05.178.178 0 0 0-.01.05.163.163 0 0 0 0 .04.334.334 0 0 0 .03.05l.12.24a.114.114 0 0 0 .04.05.15.15 0 0 0 .07.01h.23a.077.077 0 0 1 .05.02.062.062 0 0 1 .02.05.064.064 0 0 1-.02.05.076.076 0 0 1-.05.01zm1 0a.228.228 0 0 1-.12-.03.25.25 0 0 1-.08-.1l-.13-.26a.386.386 0 0 1-.02-.072.28.28 0 0 1-.01-.074.342.342 0 0 1 .04-.16l.13-.26a.206.206 0 0 1 .22-.14h.24a.078.078 0 0 1 .05.01.063.063 0 0 1 .02.05.064.064 0 0 1-.02.05.075.075 0 0 1-.05.01h-.23a.133.133 0 0 0-.06.01.138.138 0 0 0-.03.05l-.12.24a.36.36 0 0 0-.02.05.178.178 0 0 0-.01.05.163.163 0 0 0 0 .04.334.334 0 0 0 .02.05l.12.24a.114.114 0 0 0 .04.05.15.15 0 0 0 .07.01h.23a.077.077 0 0 1 .05.02.062.062 0 0 1 .02.05.064.064 0 0 1-.02.05.076.076 0 0 1-.05.01z"/>
    <path fill="none" stroke="#fff" stroke-width=".25" stroke-miterlimit="10" d="M26.195 22.644h-.177a.864.864 0 0 1-.852-.852v-.568a.864.864 0 0 1 .852-.852h.177a.864.864 0 0 1 .852.852v.568a.864.864 0 0 1-.852.852z"/>
    <path fill="#fff" d="M31.803 0h2.307v8.128h-2.307zm2.91 6.424H50.72V8.02H34.713zm14.057 38.58h5.04v1.598h-5.04zm7.346 0h8.376v1.598h-8.376z"/>
    <path fill="#0f7391" d="M47.885 48.823a.062.062 0 0 1-.043-.014.068.068 0 0 1 0-.09.064.064 0 0 1 .042-.02h.234v.23a.18.18 0 0 1-.052.13.19.19 0 0 1-.138.05h-.2a.256.256 0 0 1-.075-.01.17.17 0 0 1-.063-.04.157.157 0 0 1-.043-.07.25.25 0 0 1-.012-.08v-.3a.28.28 0 0 1 .012-.09.3.3 0 0 1 .05-.08l.14-.18a.22.22 0 0 1 .07-.07.217.217 0 0 1 .095-.02h.16a.062.062 0 0 1 .042.01.067.067 0 0 1 0 .09.063.063 0 0 1-.042.01h-.144a.08.08 0 0 0-.1.05l-.13.16a.142.142 0 0 0-.03.06.555.555 0 0 0-.006.09v.23a.1.1 0 0 0 .016.07.088.088 0 0 0 .066.02h.184a.112.112 0 0 0 .058-.01.054.054 0 0 0 .02-.05v-.12zm.97-.563a.06.06 0 1 1 .12 0v.863h-.157l-.31-.71v.65a.06.06 0 1 1-.12 0V48.2h.157l.31.72zm.502.06h-.04a.1.1 0 0 1-.052-.013.052.052 0 0 1-.02-.046.053.053 0 0 1 .02-.04.08.08 0 0 1 .05-.01h.2a.187.187 0 0 1 .106.03.232.232 0 0 1 .08.1l.1.21a.414.414 0 0 1 .03.07.272.272 0 0 1 0 .14.39.39 0 0 1-.02.07l-.11.22a.2.2 0 0 1-.07.09.224.224 0 0 1-.11.03h-.2a.064.064 0 0 1-.04-.01.056.056 0 0 1-.02-.04.055.055 0 0 1 .02-.04.062.062 0 0 1 .05-.03h.06zm.12.685h.022a.118.118 0 0 0 .05-.005.09.09 0 0 0 .03-.04l.1-.212a.386.386 0 0 0 .02-.042.113.113 0 0 0 0-.035.134.134 0 0 0-.02-.05l-.02-.04-.1-.2a.094.094 0 0 0-.03-.04.158.158 0 0 0-.06 0h-.02zm7.36-3.615a.15.15 0 0 1 .02-.047.048.048 0 0 1 .04-.015.05.05 0 0 1 .04.016.12.12 0 0 1 .023.045l.23.8a.04.04 0 0 1-.014.04.06.06 0 0 1-.044.01.053.053 0 0 1-.04-.02.1.1 0 0 1-.024-.04l-.044-.15h-.252l-.046.14a.106.106 0 0 1-.023.04.053.053 0 0 1-.04.01.06.06 0 0 1-.044-.02.04.04 0 0 1-.02-.04zm.063.22l-.1.32h.187zm1.026-.222a.06.06 0 1 1 .12 0v.863h-.158l-.31-.71v.66a.06.06 0 0 1-.12 0v-.86h.16l.31.72zm.62.002a.15.15 0 0 1 .02-.047.048.048 0 0 1 .04-.015.05.05 0 0 1 .04.016.12.12 0 0 1 .02.045l.23.8a.04.04 0 0 1-.013.04.06.06 0 0 1-.044.01.053.053 0 0 1-.05-.02.1.1 0 0 1-.03-.04l-.05-.15h-.25l-.05.14a.106.106 0 0 1-.03.04.053.053 0 0 1-.04.01.06.06 0 0 1-.05-.02.04.04 0 0 1-.02-.04zm.06.22l-.1.32h.188zm1.087.523a.064.064 0 0 1 .043.014.056.056 0 0 1 .017.045.055.055 0 0 1-.017.044.062.062 0 0 1-.042.015h-.527v-.86a.06.06 0 1 1 .12 0v.75zm.882-.47a.292.292 0 0 1 .03.13.24.24 0 0 1-.008.07.445.445 0 0 1-.03.072l-.11.218a.2.2 0 0 1-.058.07.14.14 0 0 1-.09.028.142.142 0 0 1-.09-.02.193.193 0 0 1-.06-.07l-.11-.22a.52.52 0 0 1-.03-.07.223.223 0 0 1-.01-.07.3.3 0 0 1 .03-.13l.12-.23a.205.205 0 0 1 .06-.07.147.147 0 0 1 .16 0 .2.2 0 0 1 .06.07zm-.223-.18a.184.184 0 0 0-.017-.028.028.028 0 0 0-.023-.008.028.028 0 0 0-.023.008.18.18 0 0 0-.02.028l-.11.215a.272.272 0 0 0-.02.048.155.155 0 0 0-.01.048.172.172 0 0 0 .02.078l.11.225a.134.134 0 0 0 .01.026.03.03 0 0 0 .02.01.03.03 0 0 0 .02-.01.174.174 0 0 0 .01-.027l.11-.225a.172.172 0 0 0 .02-.07.15.15 0 0 0-.01-.04.354.354 0 0 0-.02-.05zm.874.467a.062.062 0 0 1-.043-.013.067.067 0 0 1 0-.09.063.063 0 0 1 .042-.014h.234v.233a.18.18 0 0 1-.06.136.193.193 0 0 1-.14.05h-.2a.254.254 0 0 1-.08-.01.167.167 0 0 1-.07-.038.15.15 0 0 1-.05-.062.248.248 0 0 1-.01-.082v-.3a.28.28 0 0 1 .01-.092.3.3 0 0 1 .05-.08l.14-.18a.183.183 0 0 1 .16-.08h.16a.062.062 0 0 1 .04.014.068.068 0 0 1 0 .09.064.064 0 0 1-.04.014h-.15a.208.208 0 0 0-.06 0 .2.2 0 0 0-.04.044l-.13.165a.14.14 0 0 0-.03.064.513.513 0 0 0-.01.08v.23a.1.1 0 0 0 .02.07.087.087 0 0 0 .06.02h.19a.112.112 0 0 0 .05-.01.053.053 0 0 0 .02-.05v-.12zm1.708.183h.174a.064.064 0 0 1 .043.014.056.056 0 0 1 .02.045.055.055 0 0 1-.01.044.06.06 0 0 1-.04.015h-.47a.064.064 0 0 1-.04-.01.056.056 0 0 1-.01-.04.055.055 0 0 1 .02-.04.062.062 0 0 1 .04-.01h.18v-.68h-.17a.064.064 0 0 1-.04-.01.068.068 0 0 1 0-.09.064.064 0 0 1 .05-.01h.47a.062.062 0 0 1 .05.02.067.067 0 0 1 0 .09.063.063 0 0 1-.04.02h-.17zm.968-.745a.06.06 0 1 1 .12 0v.863h-.158l-.31-.71v.66a.06.06 0 1 1-.12 0v-.86h.157l.31.72zm-14.467.804a.06.06 0 0 1-.12 0v-.863h.395a.25.25 0 0 1 .075.01.172.172 0 0 1 .062.04.15.15 0 0 1 .044.06.3.3 0 0 1 .02.09v.16a.34.34 0 0 1-.01.08.168.168 0 0 1-.04.06.145.145 0 0 1-.07.04.328.328 0 0 1-.09.01h-.26zm0-.408h.263a.068.068 0 0 0 .086-.085v-.17a.1.1 0 0 0-.017-.07.1.1 0 0 0-.07-.02h-.262zm1.29-.122a.3.3 0 0 1 .03.132.24.24 0 0 1-.008.068.445.445 0 0 1-.03.073l-.11.218a.2.2 0 0 1-.058.07.14.14 0 0 1-.09.028.144.144 0 0 1-.09-.02.19.19 0 0 1-.06-.07l-.11-.22a.566.566 0 0 1-.03-.07.235.235 0 0 1-.01-.07.292.292 0 0 1 .03-.13l.11-.23a.2.2 0 0 1 .06-.07.138.138 0 0 1 .08-.02.14.14 0 0 1 .08.03.2.2 0 0 1 .06.07zm-.223-.18a.156.156 0 0 0-.017-.027.028.028 0 0 0-.023-.008.028.028 0 0 0-.023.008.184.184 0 0 0-.02.028l-.11.217a.3.3 0 0 0-.02.048.155.155 0 0 0-.01.048.172.172 0 0 0 .02.078l.11.225a.134.134 0 0 0 .01.02.03.03 0 0 0 .02.01.03.03 0 0 0 .02-.01.18.18 0 0 0 .01-.03l.11-.23a.176.176 0 0 0 .02-.08.15.15 0 0 0-.01-.05.316.316 0 0 0-.02-.05zm.888.768a.092.092 0 0 1-.05-.01.058.058 0 0 1-.022-.04.06.06 0 0 1-.024.04.094.094 0 0 1-.05.01h-.09a.09.09 0 0 1-.043-.006.1.1 0 0 1-.02-.035l-.04-.08a.132.132 0 0 1-.01-.03.188.188 0 0 1 0-.04v-.69a.06.06 0 1 1 .12 0v.68l.03.05h.05l.03-.06v-.37a.08.08 0 0 1 .02-.05.05.05 0 0 1 .05-.02.052.052 0 0 1 .05.02.08.08 0 0 1 .02.05v.38l.03.05h.05l.04-.06v-.69a.06.06 0 1 1 .12 0v.68a.15.15 0 0 1 0 .03.158.158 0 0 1-.01.03l-.04.07a.065.065 0 0 1-.07.04zm1.014-.117a.064.064 0 0 1 .043.014.056.056 0 0 1 .017.045.055.055 0 0 1-.017.044.06.06 0 0 1-.042.015h-.527v-.92h.527a.062.062 0 0 1 .043.02.067.067 0 0 1 0 .09.063.063 0 0 1-.042.02h-.408v.29h.174a.064.064 0 0 1 .043.02.068.068 0 0 1 0 .09.062.062 0 0 1-.042.02H52v.29zm.446.06a.06.06 0 0 1-.12 0v-.864h.4a.2.2 0 0 1 .132.04.155.155 0 0 1 .056.12v.08a.15.15 0 0 1-.056.12.2.2 0 0 1-.13.04h-.114l.266.38a.258.258 0 0 1 .02.03.066.066 0 0 1 .014.03.052.052 0 0 1-.017.04.06.06 0 0 1-.04.01.047.047 0 0 1-.03-.01.092.092 0 0 1-.02-.03l-.32-.47h-.02zm0-.56h.263a.173.173 0 0 0 .06-.01.038.038 0 0 0 .026-.04V45.5a.042.042 0 0 0-.03-.042.14.14 0 0 0-.06-.01h-.27zM33.166 6.67a.062.062 0 0 1-.014.042.068.068 0 0 1-.09 0 .063.063 0 0 1-.014-.042v-.235h.233a.18.18 0 0 1 .14.052.192.192 0 0 1 .05.138v.2a.255.255 0 0 1-.01.075.17.17 0 0 1-.04.063.154.154 0 0 1-.06.043.248.248 0 0 1-.08.012h-.3a.28.28 0 0 1-.09-.012.3.3 0 0 1-.08-.05l-.18-.14a.183.183 0 0 1-.08-.165V6.5a.062.062 0 0 1 .02-.043.068.068 0 0 1 .09 0 .063.063 0 0 1 .02.042v.14a.206.206 0 0 0 0 .06.2.2 0 0 0 .05.04l.17.12a.14.14 0 0 0 .07.03.533.533 0 0 0 .09 0h.23a.1.1 0 0 0 .07-.02.087.087 0 0 0 .02-.07v-.19a.112.112 0 0 0-.01-.06.054.054 0 0 0-.05-.02h-.12zm-.563-.97a.06.06 0 1 1 0-.12h.863v.157l-.71.31h.65a.06.06 0 1 1 0 .12h-.862V6.01l.72-.31h-.66zm.06-.5v.044a.094.094 0 0 1-.013.053.052.052 0 0 1-.046.02.053.053 0 0 1-.045-.02.08.08 0 0 1-.02-.05v-.2a.188.188 0 0 1 .02-.106.235.235 0 0 1 .09-.07l.21-.1a.414.414 0 0 1 .06-.02.26.26 0 0 1 .07-.01.25.25 0 0 1 .06.01.377.377 0 0 1 .06.03l.22.11a.2.2 0 0 1 .08.08.225.225 0 0 1 .02.12v.2a.064.064 0 0 1-.02.05.056.056 0 0 1-.05.02.055.055 0 0 1-.05-.01.06.06 0 0 1-.02-.04v-.1zm.685-.12v-.024a.117.117 0 0 0-.01-.056.09.09 0 0 0-.04-.03l-.21-.1a.386.386 0 0 0-.043-.018.113.113 0 0 0-.035 0 .134.134 0 0 0-.06.012l-.037.02-.2.1a.094.094 0 0 0-.043.03.16.16 0 0 0-.007.058v.014z"/>
  </g>
  <g id="BV_J12">
    <path fill="#404040" d="M73.605 21.773H69.63l-.568.533v1.384l.568.532h3.974l.534-.532v-1.384l-.533-.533zm0 2.537H69.63l-.568.533v1.385l.568.532h3.974l.534-.532v-1.385l-.533-.532zm0 2.54H69.63l-.568.53v1.385l.568.533h3.974l.534-.533V27.38l-.533-.53z"/>
    <g id="BV_J12Pin1">
      <path fill="#8c8663" d="M69.95 22.52h.815v.815h-.816z"/>
      <path fill="#80795b" d="M70.553 23.122v-.39l.212-.213v.81l-.212-.22z"/>
      <path fill="#5e5b43" d="M70.162 23.122h.39l.213.213h-.816l.21-.213z"/>
      <path fill="#9a916c" d="M69.95 22.52l.212.212v.39l-.213.213v-.816z"/>
      <path fill="#b8af82" d="M69.95 22.52l.212.212h.39l.213-.213h-.816z"/>
    </g>
    <g id="BV_J12Pin2">
      <path fill="#8c8663" d="M72.484 22.52h.816v.815h-.816z"/>
      <path fill="#80795b" d="M73.088 23.122v-.39l.212-.213v.81l-.212-.22z"/>
      <path fill="#5e5b43" d="M72.697 23.122h.39l.213.213h-.816l.213-.213z"/>
      <path fill="#9a916c" d="M72.484 22.52l.213.212v.39l-.213.213v-.816z"/>
      <path fill="#b8af82" d="M72.484 22.52l.213.212h.39l.213-.213h-.816z"/>
    </g>
    <g id="BV_J12Pin3">
      <path fill="#8c8663" d="M69.95 25.056h.815v.816h-.816z"/>
      <path fill="#80795b" d="M70.553 25.66v-.39l.212-.214v.817l-.212-.213z"/>
      <path fill="#5e5b43" d="M70.162 25.66h.39l.213.213h-.816l.21-.213z"/>
      <path fill="#9a916c" d="M69.95 25.056l.212.213v.39l-.213.21v-.82z"/>
      <path fill="#b8af82" d="M69.95 25.056l.212.213h.39l.213-.22h-.816z"/>
    </g>
    <g id="BV_J12Pin4">
      <path fill="#8c8663" d="M72.484 25.056h.816v.816h-.816z"/>
      <path fill="#80795b" d="M73.088 25.66v-.39l.212-.214v.817l-.212-.213z"/>
      <path fill="#5e5b43" d="M72.697 25.66h.39l.213.213h-.816l.213-.213z"/>
      <path fill="#9a916c" d="M72.484 25.056l.213.213v.39l-.213.21v-.82z"/>
      <path fill="#b8af82" d="M72.484 25.056l.213.213h.39l.213-.22h-.816z"/>
    </g>
    <g id="BV_J12Pin5">
      <path fill="#8c8663" d="M69.95 27.594h.815v.816h-.816z"/>
      <path fill="#80795b" d="M70.553 28.197v-.39l.212-.213v.816l-.212-.213z"/>
      <path fill="#5e5b43" d="M70.162 28.197h.39l.213.213h-.816l.21-.213z"/>
      <path fill="#9a916c" d="M69.95 27.594l.212.213v.39l-.213.213v-.816z"/>
      <path fill="#b8af82" d="M69.95 27.594l.212.213h.39l.213-.213h-.816z"/>
    </g>
    <g id="BV_J12Pin6">
      <path fill="#8c8663" d="M72.484 27.594h.816v.816h-.816z"/>
      <path fill="#80795b" d="M73.088 28.197v-.39l.212-.213v.816l-.212-.213z"/>
      <path fill="#5e5b43" d="M72.697 28.197h.39l.213.213h-.816l.213-.213z"/>
      <path fill="#9a916c" d="M72.484 27.594l.213.213v.39l-.213.213v-.816z"/>
      <path fill="#b8af82" d="M72.484 27.594l.213.213h.39l.213-.213h-.816z"/>
    </g>
  </g>
  <g id="BV_J17">
    <path fill="#999" d="M7.7 7.165h1.17V8.8H6.92V7.556a.356.356 0 0 1 .356-.356 1.728 1.728 0 0 1 .426-.035z"/>
    <path fill="gray" d="M7.24 7.165v1.6h-.322V7.45c0-.143.214-.285.32-.285z"/>
    <path fill="#b3b3b3" d="M3.016 8.77h14.517v12.85H3.016z"/>
    <path fill="#999" d="M.026 8.764h2.98v12.85H.026z"/>
    <path fill="#ccc" d="M0 20.78h17.534v.816H0z" opacity=".5" style="isolation:isolate"/>
    <path d="M.01 8.772h17.535v.816H.01z" opacity=".2" style="isolation:isolate"/>
    <path fill="#b3b3b3" d="M7.7 23.208h1.17v-1.632H6.92v1.242a.356.356 0 0 0 .355.355z"/>
    <path fill="#e6e6e6" d="M7.24 23.208v-1.6h-.322v1.313c0 .15.214.29.32.29z"/>
  </g>
  <g id="BV_SW12">
    <path fill="#e6e6e6" d="M16.428 32.638h.994v.816h-.994zm0-4.365h.994v.816h-.994z"/>
    <path fill="#ccc" d="M16.534 29.09v-.817h-.114v-.703h-2.236v.142h-2.91v-.142H9.036v6.567h2.236V34h2.91v.135h2.237v-.68h.11v-.818h-.12v-3.55h.11z"/>
    <circle cx="12.729" cy="30.871" r="1.81" fill="#641d1c"/>
    <path d="M14.618 30.8a1.887 1.887 0 0 0-3.774 0v.074a1.887 1.887 0 0 1 3.774 0z" opacity=".2" style="isolation:isolate"/>
    <circle cx="12.729" cy="30.871" r="1.739" fill="#852725"/>
    <path fill="#fff" d="M12.8 29.13a1.74 1.74 0 0 0 0 3.48h-.07a1.74 1.74 0 0 1 0-3.48z" opacity=".2" style="isolation:isolate"/>
    <path fill="#e6e6e6" d="M8.122 30.225h.994v1.207h-.994zm0 2.413h.994v.816h-.994zm0-4.365h.994v.816h-.994z"/>
    <path fill="#939598" d="M9.037 27.567h2.236v.142H9.037zm5.147 0h2.236v.142h-2.236zm-2.91.14h2.91v.14h-2.91z"/>
    <path fill="#e6e7e8" d="M9.037 33.996h2.236v.142H9.037zm5.147 0h2.236v.142h-2.236zm-2.91-.14h2.91V34h-2.91z"/>
  </g>
  <g id="BV_SW10">
    <path fill="#e6e6e6" d="M16.456 5.606h.994v.816h-.994zm0-4.366h.994v.816h-.994z"/>
    <path fill="#ccc" d="M16.562 2.056V1.24h-.114V.537h-2.236V.68h-2.91V.536H9.064v6.566H11.3v-.137h2.912v.137h2.236v-.68h.114v-.817h-.114v-3.55h.114z"/>
    <circle cx="12.756" cy="3.838" r="1.81" fill="#641d1c"/>
    <path d="M14.648 3.764a1.887 1.887 0 0 0-3.774 0v.074a1.887 1.887 0 0 1 3.774 0z" opacity=".2" style="isolation:isolate"/>
    <circle cx="12.756" cy="3.838" r="1.739" fill="#852725"/>
    <path fill="#fff" d="M12.828 2.1a1.74 1.74 0 1 0 0 3.478h-.07a1.74 1.74 0 0 1 0-3.478z" opacity=".2" style="isolation:isolate"/>
    <path fill="#e6e6e6" d="M8.15 3.192h.994V4.4H8.15zm0 2.414h.994v.816H8.15zm0-4.366h.994v.816H8.15z"/>
    <path fill="#939598" d="M9.065.534H11.3v.142H9.066zm5.147 0h2.236v.142h-2.236zm-2.91.14h2.91v.14h-2.91z"/>
    <path fill="#e6e7e8" d="M9.065 6.963H11.3v.142H9.066zm5.147 0h2.236v.142h-2.236zm-2.91-.138h2.91v.142h-2.91z"/>
  </g>
  <g id="BV_J16">
    <path fill="#232323" d="M6.07 41.122h12.423v9.086H6.07z"/>
    <path fill="#414042" d="M7.276 41.335h11.038v.64H7.276z"/>
    <path fill="#3d3d3d" fill-opacity=".3" d="M7.276 41.974h11.038v2.06H7.276z"/>
    <path d="M7.26 49.392h11.055v.603H7.26z"/>
    <path fill="#0f0f0f" fill-opacity=".4" d="M7.26 47.156h11.055v2.236H7.26z"/>
    <path d="M17.303 41.335h.25v8.66h-.25z" opacity=".5" style="isolation:isolate"/>
    <path fill="#414042" d="M12.033 48.665h-5.13v-6.037l5.13.037a3 3 0 0 1 0 6z"/>
    <path fill="#232323" d="M12.033 42.79l-4.756-.034v-1.99h-2.91v9.762h2.91V48.54h4.756a2.875 2.875 0 0 0 0-5.75z"/>
    <path fill="#6d6d6d" d="M18.492 44.565h.64v2.2h-.64z"/>
    <path fill="#494949" d="M18.492 43.5h.355v4.295h-.355z"/>
    <path fill="#414042" d="M4.685 40.945h2.343v.39H4.685z"/>
    <path d="M4.685 49.995h2.343v.39H4.685z"/>
  </g>
  <g id="BV_J14">
    <path fill="#9a916c" d="M56.86 49.797h1.137v2.626H56.86zm2.557 0h1.136v2.626h-1.136zm2.555 0h1.136v2.626h-1.136zm2.556 0h1.136v2.626h-1.136zm2.555 0h1.136v2.626h-1.14zm2.557 0h1.135v2.626H69.64z"/>
    <path fill="#404040" d="M56.134 49.843h15.333V52.4H56.134z"/>
    <g id="BV_J14Pin1">
      <path d="M56.915 50.623h.994v.994h-1z"/>
      <path fill="#9a916c" d="M57.43 51.82a.712.712 0 1 1 .71-.71.712.712 0 0 1-.71.71zm0-1.135a.424.424 0 1 0 .423.424.425.425 0 0 0-.424-.43z"/>
      <path fill="#2a2a29" d="M56.56 50.268l.355.355h.994l.35-.355h-1.7z"/>
      <path fill="#474747" d="M58.264 50.268l-.355.355v.994l.35.355v-1.704z"/>
      <path fill="#595959" d="M58.264 51.972l-.355-.355h-1l-.36.355h1.7z"/>
      <path fill="#373737" d="M56.56 51.972l.355-.355v-.994l-.355-.355v1.704z"/>
    </g>
    <g id="BV_J14Pin2">
      <path d="M59.46 50.623h.994v.994h-.994z"/>
      <path fill="#9a916c" d="M59.974 51.82a.712.712 0 1 1 .712-.71.712.712 0 0 1-.712.71zm0-1.135a.424.424 0 1 0 .424.424.425.425 0 0 0-.424-.43z"/>
      <path fill="#2a2a29" d="M59.105 50.268l.355.355h.994l.355-.355H59.1z"/>
      <path fill="#474747" d="M60.81 50.268l-.356.355v.994l.355.355v-1.704z"/>
      <path fill="#595959" d="M60.81 51.972l-.356-.355h-.994l-.355.355h1.704z"/>
      <path fill="#373737" d="M59.105 51.972l.355-.355v-.994l-.355-.355v1.704z"/>
    </g>
    <g id="BV_J14Pin3">
      <path d="M62.005 50.623H63v.994h-.995z"/>
      <path fill="#9a916c" d="M62.518 51.82a.712.712 0 1 1 .712-.71.712.712 0 0 1-.712.71zm0-1.135a.424.424 0 1 0 .424.424.425.425 0 0 0-.424-.43z"/>
      <path fill="#2a2a29" d="M61.65 50.268l.355.355H63l.354-.355H61.65z"/>
      <path fill="#474747" d="M63.354 50.268l-.355.355v.994l.35.355v-1.704z"/>
      <path fill="#595959" d="M63.354 51.972L63 51.617h-.995l-.355.355h1.704z"/>
      <path fill="#373737" d="M61.65 51.972l.355-.355v-.994l-.355-.355v1.704z"/>
    </g>
    <g id="BV_J14Pin4">
      <path d="M64.55 50.623h.994v.994h-.994z"/>
      <path fill="#9a916c" d="M65.064 51.82a.712.712 0 1 1 .712-.71.712.712 0 0 1-.712.71zm0-1.135a.424.424 0 1 0 .424.424.425.425 0 0 0-.424-.43z"/>
      <path fill="#2a2a29" d="M64.195 50.268l.355.355h.993l.355-.355h-1.703z"/>
      <path fill="#474747" d="M65.898 50.268l-.355.355v.994l.355.355v-1.704z"/>
      <path fill="#595959" d="M65.898 51.972l-.355-.355h-.993l-.355.355h1.703z"/>
      <path fill="#373737" d="M64.195 51.972l.355-.355v-.994l-.355-.355v1.704z"/>
    </g>
    <g id="BV_J14Pin5">
      <path d="M67.094 50.623h.994v.994h-.994z"/>
      <path fill="#9a916c" d="M67.61 51.82a.712.712 0 1 1 .708-.71.712.712 0 0 1-.71.71zm0-1.135a.424.424 0 1 0 .423.424.425.425 0 0 0-.424-.43z"/>
      <path fill="#2a2a29" d="M66.74 50.268l.354.355h.994l.355-.355H66.74z"/>
      <path fill="#474747" d="M68.443 50.268l-.355.355v.994l.355.355v-1.704z"/>
      <path fill="#595959" d="M68.443 51.972l-.355-.355h-.994l-.355.355h1.7z"/>
      <path fill="#373737" d="M66.74 51.972l.354-.355v-.994l-.355-.355v1.704z"/>
    </g>
    <g id="BV_J14Pin6">
      <path d="M69.64 50.623h.993v.994h-.994z"/>
      <path fill="#9a916c" d="M70.153 51.82a.712.712 0 1 1 .712-.71.712.712 0 0 1-.712.71zm0-1.135a.424.424 0 1 0 .424.424.425.425 0 0 0-.424-.43z"/>
      <path fill="#2a2a29" d="M69.284 50.268l.355.355h.99l.35-.355h-1.7z"/>
      <path fill="#474747" d="M70.988 50.268l-.355.355v.994l.355.355v-1.704z"/>
      <path fill="#595959" d="M70.988 51.972l-.355-.355h-.994l-.36.355h1.7z"/>
      <path fill="#373737" d="M69.284 51.972l.355-.355v-.994l-.36-.355v1.704z"/>
    </g>
  </g>
  <g id="BV_J10">
    <path fill="#9a916c" d="M33.862 49.797h1.136v2.626h-1.136zm2.555 0h1.136v2.626h-1.136zm2.556 0h1.136v2.626h-1.14zm2.555 0h1.136v2.626h-1.136zm2.556 0h1.136v2.626h-1.136zm2.556 0h1.135v2.626H46.64zm2.555 0h1.136v2.626H49.2zm2.555 0h1.136v2.626H51.75z"/>
    <path fill="#404040" d="M33.135 49.843H53.58V52.4H33.134z"/>
    <g id="BV_J10Pin1">
      <path d="M33.915 50.623h.994v.994h-1z"/>
      <path fill="#9a916c" d="M34.43 51.82a.712.712 0 1 1 .71-.71.712.712 0 0 1-.71.71zm0-1.135a.424.424 0 1 0 .423.424.425.425 0 0 0-.424-.43z"/>
      <path fill="#2a2a29" d="M33.56 50.268l.355.355h.994l.35-.355h-1.7z"/>
      <path fill="#474747" d="M35.264 50.268l-.355.355v.994l.35.355v-1.704z"/>
      <path fill="#595959" d="M35.264 51.972l-.355-.355h-1l-.36.355h1.7z"/>
      <path fill="#373737" d="M33.56 51.972l.355-.355v-.994l-.355-.355v1.704z"/>
    </g>
    <g id="BV_J10Pin2">
      <path d="M36.47 50.623h.995v.994h-.994z"/>
      <path fill="#9a916c" d="M36.985 51.82a.712.712 0 1 1 .712-.71.712.712 0 0 1-.712.71zm0-1.135a.424.424 0 1 0 .424.424.425.425 0 0 0-.43-.43z"/>
      <path fill="#2a2a29" d="M36.116 50.268l.355.355h1l.36-.355h-1.71z"/>
      <path fill="#474747" d="M37.82 50.268l-.355.355v.994l.355.355v-1.704z"/>
      <path fill="#595959" d="M37.82 51.972l-.355-.355h-.994l-.35.355h1.71z"/>
      <path fill="#373737" d="M36.116 51.972l.355-.355v-.994l-.35-.355v1.704z"/>
    </g>
    <g id="BV_J10Pin3">
      <path d="M39.027 50.623h.994v.994h-.99z"/>
      <path fill="#9a916c" d="M39.54 51.82a.712.712 0 1 1 .713-.71.712.712 0 0 1-.712.71zm0-1.135a.424.424 0 1 0 .425.424.425.425 0 0 0-.424-.43z"/>
      <path fill="#2a2a29" d="M38.672 50.268l.355.355h.994l.36-.355h-1.7z"/>
      <path fill="#474747" d="M40.376 50.268l-.355.355v.994l.36.355v-1.704z"/>
      <path fill="#595959" d="M40.376 51.972l-.355-.355h-.99l-.35.355h1.71z"/>
      <path fill="#373737" d="M38.672 51.972l.355-.355v-.994l-.355-.355v1.704z"/>
    </g>
    <g id="BV_J10Pin4">
      <path d="M41.583 50.623h.994v.994h-.994z"/>
      <path fill="#9a916c" d="M42.097 51.82a.712.712 0 1 1 .712-.71.712.712 0 0 1-.72.71zm0-1.135a.424.424 0 1 0 .424.424.425.425 0 0 0-.42-.43z"/>
      <path fill="#2a2a29" d="M41.228 50.268l.355.355h.993l.355-.355h-1.7z"/>
      <path fill="#474747" d="M42.93 50.268l-.354.355v.994l.355.355v-1.704z"/>
      <path fill="#595959" d="M42.93 51.972l-.354-.355h-.993l-.355.355h1.703z"/>
      <path fill="#373737" d="M41.228 51.972l.355-.355v-.994l-.355-.355v1.704z"/>
    </g>
    <g id="BV_J10Pin5">
      <path d="M44.138 50.623h.994v.994h-.994z"/>
      <path fill="#9a916c" d="M44.653 51.82a.712.712 0 1 1 .712-.71.712.712 0 0 1-.712.71zm0-1.135a.424.424 0 1 0 .424.424.425.425 0 0 0-.424-.43z"/>
      <path fill="#2a2a29" d="M43.784 50.268l.354.355h.994l.355-.355h-1.703z"/>
      <path fill="#474747" d="M45.487 50.268l-.355.355v.994l.355.355v-1.704z"/>
      <path fill="#595959" d="M45.487 51.972l-.355-.355h-.994l-.354.355h1.703z"/>
      <path fill="#373737" d="M43.784 51.972l.354-.355v-.994l-.354-.355v1.704z"/>
    </g>
    <g id="BV_J10Pin6">
      <path d="M46.694 50.623h.994v.994h-.994z"/>
      <path fill="#9a916c" d="M47.21 51.82a.712.712 0 1 1 .71-.71.712.712 0 0 1-.71.71zm0-1.135a.424.424 0 1 0 .423.424.425.425 0 0 0-.424-.43z"/>
      <path fill="#2a2a29" d="M46.34 50.268l.354.355h.994l.355-.355H46.34z"/>
      <path fill="#474747" d="M48.043 50.268l-.355.355v.994l.355.355v-1.704z"/>
      <path fill="#595959" d="M48.043 51.972l-.355-.355h-.994l-.355.355h1.7z"/>
      <path fill="#373737" d="M46.34 51.972l.354-.355v-.994l-.355-.355v1.704z"/>
    </g>
    <g id="BV_J10Pin7">
      <path d="M49.25 50.623h.994v.994h-.994z"/>
      <path fill="#9a916c" d="M49.764 51.82a.712.712 0 1 1 .712-.71.712.712 0 0 1-.712.71zm0-1.135a.424.424 0 1 0 .424.424.425.425 0 0 0-.424-.43z"/>
      <path fill="#2a2a29" d="M48.895 50.268l.355.355h.994l.355-.355h-1.71z"/>
      <path fill="#474747" d="M50.6 50.268l-.356.355v.994l.355.355v-1.704z"/>
      <path fill="#595959" d="M50.6 51.972l-.356-.355h-.994l-.355.355H50.6z"/>
      <path fill="#373737" d="M48.895 51.972l.355-.355v-.994l-.355-.355v1.704z"/>
    </g>
    <g id="BV_J10Pin8">
      <path d="M51.806 50.623h.994v.994h-.994z"/>
      <path fill="#9a916c" d="M52.318 51.82a.712.712 0 1 1 .712-.71.712.712 0 0 1-.712.71zm0-1.135a.424.424 0 1 0 .424.424.425.425 0 0 0-.424-.43z"/>
      <path fill="#2a2a29" d="M51.45 50.268l.356.355h.994l.355-.355H51.45z"/>
      <path fill="#474747" d="M53.155 50.268l-.355.355v.994l.355.355v-1.704z"/>
      <path fill="#595959" d="M53.155 51.972l-.355-.355h-.994l-.355.355h1.71z"/>
      <path fill="#373737" d="M51.45 51.972l.356-.355v-.994l-.355-.355v1.704z"/>
    </g>
  </g>
  <g id="BV_J13">
    <path fill="#9a916c" d="M51.764 1.222H52.9v2.626h-1.136zm2.556 0h1.136v2.626H54.32zm2.555 0h1.136v2.626h-1.13zm2.555 0h1.137v2.626H59.43zm2.556 0h1.136v2.626h-1.136zm2.556 0h1.136v2.626h-1.136zm2.555 0h1.136v2.626h-1.136zm2.556 0h1.136v2.626h-1.14z"/>
    <path fill="#404040" d="M51.037 1.267H71.48v2.556H51.038z"/>
    <g id="BV_J13Pin8">
      <path d="M51.818 2.048h.994v.994h-.994z"/>
      <path fill="#9a916c" d="M52.332 3.246a.712.712 0 1 1 .712-.712.712.712 0 0 1-.712.712zm0-1.136a.424.424 0 1 0 .424.424.425.425 0 0 0-.424-.423z"/>
      <path fill="#2a2a29" d="M51.463 1.693l.355.355h.994l.355-.355h-1.704z"/>
      <path fill="#474747" d="M53.167 1.693l-.355.355v.994l.355.355V1.693z"/>
      <path fill="#595959" d="M53.167 3.397l-.355-.355h-.994l-.355.355h1.704z"/>
      <path fill="#373737" d="M51.463 3.397l.355-.355v-.994l-.355-.355v1.704z"/>
    </g>
    <g id="BV_J13Pin7">
      <path d="M54.374 2.048h.994v.994h-.994z"/>
      <path fill="#9a916c" d="M54.888 3.246a.712.712 0 1 1 .712-.712.712.712 0 0 1-.712.712zm0-1.136a.424.424 0 1 0 .424.424.425.425 0 0 0-.424-.423z"/>
      <path fill="#2a2a29" d="M54.02 1.693l.354.355h.994l.355-.355H54.02z"/>
      <path fill="#474747" d="M55.723 1.693l-.355.355v.994l.355.355V1.693z"/>
      <path fill="#595959" d="M55.723 3.397l-.355-.355h-.994l-.355.355h1.7z"/>
      <path fill="#373737" d="M54.02 3.397l.354-.355v-.994l-.355-.355v1.704z"/>
    </g>
    <g id="BV_J13Pin6">
      <path d="M56.93 2.048h.994v.994h-.994z"/>
      <path fill="#9a916c" d="M57.444 3.246a.712.712 0 1 1 .712-.712.712.712 0 0 1-.712.712zm0-1.136a.424.424 0 1 0 .424.424.425.425 0 0 0-.424-.423z"/>
      <path fill="#2a2a29" d="M56.575 1.693l.355.355h.993l.355-.355h-1.703z"/>
      <path fill="#474747" d="M58.278 1.693l-.355.355v.994l.355.355V1.693z"/>
      <path fill="#595959" d="M58.278 3.397l-.355-.355h-.993l-.355.355h1.703z"/>
      <path fill="#373737" d="M56.575 3.397l.355-.355v-.994l-.355-.355v1.704z"/>
    </g>
    <g id="BV_J13Pin5">
      <path d="M59.485 2.048h.994v.994h-1z"/>
      <path fill="#9a916c" d="M60 3.246a.712.712 0 1 1 .712-.712.712.712 0 0 1-.712.712zm0-1.136a.424.424 0 1 0 .424.424A.425.425 0 0 0 60 2.11z"/>
      <path fill="#2a2a29" d="M59.13 1.693l.355.355h.994l.35-.355h-1.7z"/>
      <path fill="#474747" d="M60.834 1.693l-.355.355v.994l.35.355V1.693z"/>
      <path fill="#595959" d="M60.834 3.397l-.355-.355h-1l-.36.355h1.7z"/>
      <path fill="#373737" d="M59.13 3.397l.355-.355v-.994l-.354-.355v1.704z"/>
    </g>
    <g id="BV_J13Pin4">
      <path d="M62.04 2.048h.995v.994h-.994z"/>
      <path fill="#9a916c" d="M62.556 3.246a.712.712 0 1 1 .712-.712.712.712 0 0 1-.712.712zm0-1.136a.424.424 0 1 0 .424.424.425.425 0 0 0-.424-.423z"/>
      <path fill="#2a2a29" d="M61.686 1.693l.355.355h1l.36-.355h-1.71z"/>
      <path fill="#474747" d="M63.39 1.693l-.355.355v.994l.355.355V1.693z"/>
      <path fill="#595959" d="M63.39 3.397l-.355-.355h-.994l-.35.355h1.71z"/>
      <path fill="#373737" d="M61.686 3.397l.355-.355v-.994l-.35-.355v1.704z"/>
    </g>
    <g id="BV_J13Pin3">
      <path d="M64.597 2.048h.994v.994h-.99z"/>
      <path fill="#9a916c" d="M65.11 3.246a.712.712 0 1 1 .713-.712.712.712 0 0 1-.712.712zm0-1.136a.424.424 0 1 0 .425.424.425.425 0 0 0-.424-.423z"/>
      <path fill="#2a2a29" d="M64.242 1.693l.355.355h.994l.36-.355h-1.7z"/>
      <path fill="#474747" d="M65.946 1.693l-.355.355v.994l.36.355V1.693z"/>
      <path fill="#595959" d="M65.946 3.397l-.355-.355h-.99l-.35.355h1.71z"/>
      <path fill="#373737" d="M64.242 3.397l.355-.355v-.994l-.355-.355v1.704z"/>
    </g>
    <g id="BV_J13Pin2">
      <path d="M67.153 2.048h.994v.994h-.994z"/>
      <path fill="#9a916c" d="M67.667 3.246a.712.712 0 1 1 .712-.712.712.712 0 0 1-.72.712zm0-1.136a.424.424 0 1 0 .424.424.425.425 0 0 0-.42-.423z"/>
      <path fill="#2a2a29" d="M66.798 1.693l.355.355h.994l.355-.355h-1.704z"/>
      <path fill="#474747" d="M68.502 1.693l-.355.355v.994l.355.355V1.693z"/>
      <path fill="#595959" d="M68.502 3.397l-.355-.355h-.994l-.355.355h1.704z"/>
      <path fill="#373737" d="M66.798 3.397l.355-.355v-.994l-.355-.355v1.704z"/>
    </g>
    <g id="BV_J13Pin1">
      <path d="M69.71 2.048h.993v.994h-.994z"/>
      <path fill="#9a916c" d="M70.223 3.246a.712.712 0 1 1 .712-.712.712.712 0 0 1-.712.712zm0-1.136a.424.424 0 1 0 .424.424.425.425 0 0 0-.424-.423z"/>
      <path fill="#2a2a29" d="M69.354 1.693l.355.355h.99l.35-.355h-1.7z"/>
      <path fill="#474747" d="M71.058 1.693l-.355.355v.994l.355.355V1.693z"/>
      <path fill="#595959" d="M71.058 3.397l-.355-.355h-.994l-.36.355h1.7z"/>
      <path fill="#373737" d="M69.354 3.397l.355-.355v-.994l-.36-.355v1.704z"/>
    </g>
  </g>
  <g id="BV_J11">
    <path fill="#9a916c" d="M24.633 1.242h1.136V3.87h-1.14zm2.557 0h1.135V3.87H27.19zm2.554 0h1.136V3.87h-1.136zm2.556 0h1.136V3.87H32.3zm2.555 0h1.136V3.87h-1.13zm2.555 0h1.137V3.87H37.41zm2.556 0h1.136V3.87h-1.136zm2.556 0h1.136V3.87h-1.136zm2.555 0h1.136V3.87h-1.136zm2.556 0h1.136V3.87h-1.14z"/>
    <path fill="#404040" d="M23.938 1.278h25.555v2.556H23.938z"/>
    <g id="BV_J11Pin10">
      <path d="M24.703 2.06h.994v.993h-.994z"/>
      <path fill="#9a916c" d="M25.218 3.257a.712.712 0 1 1 .712-.712.712.712 0 0 1-.712.712zm0-1.136a.424.424 0 1 0 .424.43.425.425 0 0 0-.424-.42z"/>
      <path fill="#2a2a29" d="M24.348 1.704l.355.355h.994l.355-.36h-1.704z"/>
      <path fill="#474747" d="M26.052 1.704l-.355.355v.99l.355.35V1.7z"/>
      <path fill="#595959" d="M26.052 3.407l-.355-.355h-.994l-.355.355h1.704z"/>
      <path fill="#373737" d="M24.348 3.407l.355-.355V2.06l-.355-.356v1.703z"/>
    </g>
    <g id="BV_J11Pin9">
      <path d="M27.256 2.06h.994v.993h-.994z"/>
      <path fill="#9a916c" d="M27.77 3.257a.712.712 0 1 1 .713-.712.712.712 0 0 1-.712.712zm0-1.136a.424.424 0 1 0 .425.43.425.425 0 0 0-.424-.42z"/>
      <path fill="#2a2a29" d="M26.9 1.704l.356.355h.994l.355-.36H26.9z"/>
      <path fill="#474747" d="M28.605 1.704l-.355.355v.99l.355.35V1.7z"/>
      <path fill="#595959" d="M28.605 3.407l-.355-.355h-.994l-.355.355h1.71z"/>
      <path fill="#373737" d="M26.9 3.407l.356-.355V2.06l-.355-.356v1.703z"/>
    </g>
    <g id="BV_J11Pin8">
      <path d="M29.81 2.06h.994v.993h-.994z"/>
      <path fill="#9a916c" d="M30.324 3.257a.712.712 0 1 1 .712-.712.712.712 0 0 1-.712.712zm0-1.136a.424.424 0 1 0 .424.43.425.425 0 0 0-.424-.42z"/>
      <path fill="#2a2a29" d="M29.455 1.704l.355.355h.993l.355-.36h-1.703z"/>
      <path fill="#474747" d="M31.158 1.704l-.355.355v.99l.355.35V1.7z"/>
      <path fill="#595959" d="M31.158 3.407l-.355-.355h-.993l-.355.355h1.703z"/>
      <path fill="#373737" d="M29.455 3.407l.355-.355V2.06l-.355-.356v1.703z"/>
    </g>
    <g id="BV_J11Pin7">
      <path d="M32.363 2.06h.994v.993h-.994z"/>
      <path fill="#9a916c" d="M32.877 3.257a.712.712 0 1 1 .712-.712.712.712 0 0 1-.72.712zm0-1.136a.424.424 0 1 0 .424.43.425.425 0 0 0-.42-.42z"/>
      <path fill="#2a2a29" d="M32.008 1.704l.355.355h.994l.354-.36h-1.7z"/>
      <path fill="#474747" d="M33.71 1.704l-.353.355v.99l.354.35V1.7z"/>
      <path fill="#595959" d="M33.71 3.407l-.353-.355h-.994l-.355.355h1.703z"/>
      <path fill="#373737" d="M32.008 3.407l.355-.355V2.06l-.355-.356v1.703z"/>
    </g>
    <g id="BV_J11Pin6">
      <path d="M34.916 2.06h.994v.993h-.994z"/>
      <path fill="#9a916c" d="M35.43 3.257a.712.712 0 1 1 .712-.712.712.712 0 0 1-.712.712zm0-1.136a.424.424 0 1 0 .424.43.425.425 0 0 0-.424-.42z"/>
      <path fill="#2a2a29" d="M34.56 1.704l.356.355h.994l.355-.36H34.56z"/>
      <path fill="#474747" d="M36.265 1.704l-.355.355v.99l.355.35V1.7z"/>
      <path fill="#595959" d="M36.265 3.407l-.355-.355h-.994l-.355.355h1.71z"/>
      <path fill="#373737" d="M34.56 3.407l.356-.355V2.06l-.355-.356v1.703z"/>
    </g>
    <g id="BV_J11Pin5">
      <path d="M37.47 2.06h.993v.993h-.994z"/>
      <path fill="#9a916c" d="M37.983 3.257a.712.712 0 1 1 .712-.712.712.712 0 0 1-.712.712zm0-1.136a.424.424 0 1 0 .424.43.425.425 0 0 0-.424-.42z"/>
      <path fill="#2a2a29" d="M37.114 1.704l.355.355h.99l.35-.36h-1.7z"/>
      <path fill="#474747" d="M38.818 1.704l-.355.355v.99l.355.35V1.7z"/>
      <path fill="#595959" d="M38.818 3.407l-.355-.355h-.994l-.36.355h1.7z"/>
      <path fill="#373737" d="M37.114 3.407l.355-.355V2.06l-.36-.356v1.703z"/>
    </g>
    <g id="BV_J11Pin4">
      <path d="M40.022 2.06h.994v.993h-.994z"/>
      <path fill="#9a916c" d="M40.536 3.257a.712.712 0 1 1 .712-.712.712.712 0 0 1-.712.712zm0-1.136a.424.424 0 1 0 .424.43.425.425 0 0 0-.424-.42z"/>
      <path fill="#2a2a29" d="M39.667 1.704l.355.355h.994l.355-.36h-1.7z"/>
      <path fill="#474747" d="M41.37 1.704l-.354.355v.99l.355.35V1.7z"/>
      <path fill="#595959" d="M41.37 3.407l-.354-.355h-.994l-.355.355h1.704z"/>
      <path fill="#373737" d="M39.667 3.407l.355-.355V2.06l-.355-.356v1.703z"/>
    </g>
    <g id="BV_J11Pin3">
      <path d="M42.575 2.06h.994v.993h-1z"/>
      <path fill="#9a916c" d="M43.09 3.257a.712.712 0 1 1 .712-.712.712.712 0 0 1-.712.712zm0-1.136a.424.424 0 1 0 .424.43.425.425 0 0 0-.424-.42z"/>
      <path fill="#2a2a29" d="M42.22 1.704l.355.355h.994l.35-.36h-1.7z"/>
      <path fill="#474747" d="M43.924 1.704l-.355.355v.99l.35.35V1.7z"/>
      <path fill="#595959" d="M43.924 3.407l-.355-.355h-1l-.36.355h1.7z"/>
      <path fill="#373737" d="M42.22 3.407l.355-.355V2.06l-.355-.356v1.703z"/>
    </g>
    <g id="BV_J11Pin2">
      <path d="M45.13 2.06h.993v.993h-.994z"/>
      <path fill="#9a916c" d="M45.643 3.257a.712.712 0 1 1 .712-.712.712.712 0 0 1-.712.712zm0-1.136a.424.424 0 1 0 .424.43.425.425 0 0 0-.424-.42z"/>
      <path fill="#2a2a29" d="M44.774 1.704l.355.355h.99l.35-.36h-1.7z"/>
      <path fill="#474747" d="M46.477 1.704l-.355.355v.99l.355.35V1.7z"/>
      <path fill="#595959" d="M46.477 3.407l-.355-.355h-.993l-.36.355h1.7z"/>
      <path fill="#373737" d="M44.774 3.407l.355-.355V2.06l-.36-.356v1.703z"/>
    </g>
    <g id="BV_J11Pin1">
      <path d="M47.682 2.06h.994v.993h-.994z"/>
      <path fill="#9a916c" d="M48.196 3.257a.712.712 0 1 1 .712-.712.712.712 0 0 1-.712.712zm0-1.136a.424.424 0 1 0 .424.43.425.425 0 0 0-.424-.42z"/>
      <path fill="#2a2a29" d="M47.327 1.704l.355.355h.994l.355-.36h-1.7z"/>
      <path fill="#474747" d="M49.03 1.704l-.354.355v.99l.355.35V1.7z"/>
      <path fill="#595959" d="M49.03 3.407l-.354-.355h-.994l-.355.355h1.704z"/>
      <path fill="#373737" d="M47.327 3.407l.355-.355V2.06l-.355-.356v1.703z"/>
    </g>
  </g>
</svg>
